solid OpenSCAD_Model
  facet normal 0 0 -1
    outer loop
      vertex 54.6543 82.7695 -2.5
      vertex 55.6729 82.4463 -2.5
      vertex 56.457 82.1016 -2.5
    endloop
  endfacet
  facet normal -0 0 -1
    outer loop
      vertex 55.7422 0.401367 -2.5
      vertex 53.9229 0.197266 -2.5
      vertex 56.3164 0.572266 -2.5
    endloop
  endfacet
  facet normal -0 0 -1
    outer loop
      vertex 60.3701 2.87305 -2.5
      vertex 58.6191 1.51562 -2.5
      vertex 61.5762 4.65234 -2.5
    endloop
  endfacet
  facet normal 0 0 -1
    outer loop
      vertex 62.2441 6.86523 -2.5
      vertex 62.1514 6.30078 -2.5
      vertex 61.5762 4.65234 -2.5
    endloop
  endfacet
  facet normal 0 0 -1
    outer loop
      vertex 58.6191 1.51562 -2.5
      vertex 62.2441 6.86523 -2.5
      vertex 61.5762 4.65234 -2.5
    endloop
  endfacet
  facet normal 0 0 -1
    outer loop
      vertex 58.6191 1.51562 -2.5
      vertex 62.2793 7.09863 -2.5
      vertex 62.2441 6.86523 -2.5
    endloop
  endfacet
  facet normal -0 0 -1
    outer loop
      vertex 58.6191 1.51562 -2.5
      vertex 56.9102 0.743164 -2.5
      vertex 62.2793 7.09863 -2.5
    endloop
  endfacet
  facet normal 0 0 -1
    outer loop
      vertex 62.2793 7.09863 -2.5
      vertex 56.9102 0.743164 -2.5
      vertex 56.3164 0.572266 -2.5
    endloop
  endfacet
  facet normal 0 0 -1
    outer loop
      vertex 53.9229 0.197266 -2.5
      vertex 62.2793 7.09863 -2.5
      vertex 56.3164 0.572266 -2.5
    endloop
  endfacet
  facet normal 0 0 -1
    outer loop
      vertex 53.9229 0.197266 -2.5
      vertex 62.4941 7.79395 -2.5
      vertex 62.2793 7.09863 -2.5
    endloop
  endfacet
  facet normal -0 0 -1
    outer loop
      vertex 53.9229 0.197266 -2.5
      vertex 50.9053 0.155273 -2.5
      vertex 62.4941 7.79395 -2.5
    endloop
  endfacet
  facet normal 0 0 -1
    outer loop
      vertex 64.834 7.36523 -2.5
      vertex 76.2617 41.4844 -2.5
      vertex 83.3262 37.4766 -2.5
    endloop
  endfacet
  facet normal 0 0 -1
    outer loop
      vertex 70.6738 5.69434 -2.5
      vertex 83.3262 37.4766 -2.5
      vertex 89.3467 33.2373 -2.5
    endloop
  endfacet
  facet normal 0 0 -1
    outer loop
      vertex 77.6445 3.79688 -2.5
      vertex 93.0537 30.0361 -2.5
      vertex 94.168 28.8535 -2.5
    endloop
  endfacet
  facet normal 0 0 -1
    outer loop
      vertex 103.019 2.27246 -2.5
      vertex 102.81 1.97461 -2.5
      vertex 102.512 1.75391 -2.5
    endloop
  endfacet
  facet normal -0 0 -1
    outer loop
      vertex 101.563 1.36133 -2.5
      vertex 101.04 1.18555 -2.5
      vertex 103.328 4.05273 -2.5
    endloop
  endfacet
  facet normal 0 0 -1
    outer loop
      vertex 95.4648 0.836914 -2.5
      vertex 103.5 6.65723 -2.5
      vertex 99.1143 0.96582 -2.5
    endloop
  endfacet
  facet normal 0 0 -1
    outer loop
      vertex 103.161 2.68848 -2.5
      vertex 103.019 2.27246 -2.5
      vertex 102.512 1.75391 -2.5
    endloop
  endfacet
  facet normal 0 0 -1
    outer loop
      vertex 101.698 1.41113 -2.5
      vertex 103.256 3.26758 -2.5
      vertex 102.103 1.56445 -2.5
    endloop
  endfacet
  facet normal 0 0 -1
    outer loop
      vertex 102.103 1.56445 -2.5
      vertex 103.161 2.68848 -2.5
      vertex 102.512 1.75391 -2.5
    endloop
  endfacet
  facet normal -0 0 -1
    outer loop
      vertex 103.161 2.68848 -2.5
      vertex 102.103 1.56445 -2.5
      vertex 103.256 3.26758 -2.5
    endloop
  endfacet
  facet normal 0 0 -1
    outer loop
      vertex 103.256 3.26758 -2.5
      vertex 101.698 1.41113 -2.5
      vertex 101.563 1.36133 -2.5
    endloop
  endfacet
  facet normal 0 0 -1
    outer loop
      vertex 103.328 4.05273 -2.5
      vertex 103.256 3.26758 -2.5
      vertex 101.563 1.36133 -2.5
    endloop
  endfacet
  facet normal 0 0 -1
    outer loop
      vertex 99.1143 0.96582 -2.5
      vertex 103.328 4.05273 -2.5
      vertex 101.04 1.18555 -2.5
    endloop
  endfacet
  facet normal 0 0 -1
    outer loop
      vertex 99.1143 0.96582 -2.5
      vertex 103.38 4.83008 -2.5
      vertex 103.328 4.05273 -2.5
    endloop
  endfacet
  facet normal 0 0 -1
    outer loop
      vertex 99.1143 0.96582 -2.5
      vertex 103.397 5.08789 -2.5
      vertex 103.38 4.83008 -2.5
    endloop
  endfacet
  facet normal 0 0 -1
    outer loop
      vertex 99.1143 0.96582 -2.5
      vertex 103.5 6.65723 -2.5
      vertex 103.397 5.08789 -2.5
    endloop
  endfacet
  facet normal 0 0 -1
    outer loop
      vertex 95.4648 0.836914 -2.5
      vertex 103.113 11.4131 -2.5
      vertex 103.5 6.65723 -2.5
    endloop
  endfacet
  facet normal 0 0 -1
    outer loop
      vertex 95.4648 0.836914 -2.5
      vertex 91.4561 0.976562 -2.5
      vertex 103.113 11.4131 -2.5
    endloop
  endfacet
  facet normal -0 0 -1
    outer loop
      vertex 103.113 11.4131 -2.5
      vertex 91.4561 0.976562 -2.5
      vertex 101.45 17.5645 -2.5
    endloop
  endfacet
  facet normal 0 0 -1
    outer loop
      vertex 101.45 17.5645 -2.5
      vertex 91.4561 0.976562 -2.5
      vertex 88.8008 1.23242 -2.5
    endloop
  endfacet
  facet normal 0 0 -1
    outer loop
      vertex 87.9297 1.39062 -2.5
      vertex 101.45 17.5645 -2.5
      vertex 88.8008 1.23242 -2.5
    endloop
  endfacet
  facet normal 0 0 -1
    outer loop
      vertex 87.9297 1.39062 -2.5
      vertex 86.8154 1.59277 -2.5
      vertex 101.45 17.5645 -2.5
    endloop
  endfacet
  facet normal -0 0 -1
    outer loop
      vertex 101.45 17.5645 -2.5
      vertex 86.8154 1.59277 -2.5
      vertex 98.4512 23.418 -2.5
    endloop
  endfacet
  facet normal 0 0 -1
    outer loop
      vertex 98.4512 23.418 -2.5
      vertex 86.8154 1.59277 -2.5
      vertex 83.4971 2.33398 -2.5
    endloop
  endfacet
  facet normal 0 -0 -1
    outer loop
      vertex 95.3516 27.6035 -2.5
      vertex 98.4512 23.418 -2.5
      vertex 83.4971 2.33398 -2.5
    endloop
  endfacet
  facet normal 0 0 -1
    outer loop
      vertex 77.6445 3.79688 -2.5
      vertex 95.3516 27.6035 -2.5
      vertex 83.4971 2.33398 -2.5
    endloop
  endfacet
  facet normal 0 0 -1
    outer loop
      vertex 77.6445 3.79688 -2.5
      vertex 94.168 28.8535 -2.5
      vertex 95.3516 27.6035 -2.5
    endloop
  endfacet
  facet normal 0 -0 -1
    outer loop
      vertex 89.3467 33.2373 -2.5
      vertex 93.0537 30.0361 -2.5
      vertex 77.6445 3.79688 -2.5
    endloop
  endfacet
  facet normal 0 0 -1
    outer loop
      vertex 70.6738 5.69434 -2.5
      vertex 89.3467 33.2373 -2.5
      vertex 77.6445 3.79688 -2.5
    endloop
  endfacet
  facet normal 0 0 -1
    outer loop
      vertex 64.834 7.36523 -2.5
      vertex 83.3262 37.4766 -2.5
      vertex 70.6738 5.69434 -2.5
    endloop
  endfacet
  facet normal 0 0 -1
    outer loop
      vertex 62.8936 7.93848 -2.5
      vertex 76.2617 41.4844 -2.5
      vertex 64.834 7.36523 -2.5
    endloop
  endfacet
  facet normal 0 0 -1
    outer loop
      vertex 62.8936 7.93848 -2.5
      vertex 62.8135 7.96484 -2.5
      vertex 76.2617 41.4844 -2.5
    endloop
  endfacet
  facet normal -0 0 -1
    outer loop
      vertex 76.2617 41.4844 -2.5
      vertex 62.8135 7.96484 -2.5
      vertex 70.3311 44.3232 -2.5
    endloop
  endfacet
  facet normal -0 0 -1
    outer loop
      vertex 70.3311 44.3232 -2.5
      vertex 62.8135 7.96484 -2.5
      vertex 68.3135 45.168 -2.5
    endloop
  endfacet
  facet normal -0 0 -1
    outer loop
      vertex 68.3135 45.168 -2.5
      vertex 62.8135 7.96484 -2.5
      vertex 65.0664 46.4951 -2.5
    endloop
  endfacet
  facet normal 0 0 -1
    outer loop
      vertex 65.0664 46.4951 -2.5
      vertex 62.8135 7.96484 -2.5
      vertex 41.0752 8.05176 -2.5
    endloop
  endfacet
  facet normal 0 0 -1
    outer loop
      vertex 65.0391 55.7256 -2.5
      vertex 38.3271 51.0566 -2.5
      vertex 38.3066 53.6162 -2.5
    endloop
  endfacet
  facet normal -0 -0 -1
    outer loop
      vertex 51.5176 83.2441 -2.5
      vertex 51.9795 83.1924 -2.5
      vertex 51.0566 83.2471 -2.5
    endloop
  endfacet
  facet normal 0 0 -1
    outer loop
      vertex 59.3711 80.0527 -2.5
      vertex 53.3643 83.0107 -2.5
      vertex 56.7119 81.9736 -2.5
    endloop
  endfacet
  facet normal -0 -0 -1
    outer loop
      vertex 59.3711 80.0527 -2.5
      vertex 61.5059 77.1797 -2.5
      vertex 53.3643 83.0107 -2.5
    endloop
  endfacet
  facet normal 0 0 -1
    outer loop
      vertex 53.3643 83.0107 -2.5
      vertex 54.6543 82.7695 -2.5
      vertex 56.457 82.1016 -2.5
    endloop
  endfacet
  facet normal 0 0 -1
    outer loop
      vertex 56.7119 81.9736 -2.5
      vertex 57.4336 81.6104 -2.5
      vertex 59.3711 80.0527 -2.5
    endloop
  endfacet
  facet normal 0 0 -1
    outer loop
      vertex 53.3643 83.0107 -2.5
      vertex 56.457 82.1016 -2.5
      vertex 56.7119 81.9736 -2.5
    endloop
  endfacet
  facet normal 0 0 -1
    outer loop
      vertex 51.9795 83.1924 -2.5
      vertex 49.6562 83.0391 -2.5
      vertex 50.4062 83.1748 -2.5
    endloop
  endfacet
  facet normal 0 -0 -1
    outer loop
      vertex 51.0566 83.2471 -2.5
      vertex 51.9795 83.1924 -2.5
      vertex 50.4062 83.1748 -2.5
    endloop
  endfacet
  facet normal 0 -0 -1
    outer loop
      vertex 51.4053 83.2598 -2.5
      vertex 51.5176 83.2441 -2.5
      vertex 51.0566 83.2471 -2.5
    endloop
  endfacet
  facet normal 0 0 -1
    outer loop
      vertex 49.082 82.9023 -2.5
      vertex 49.6562 83.0391 -2.5
      vertex 51.9795 83.1924 -2.5
    endloop
  endfacet
  facet normal 0 0 -1
    outer loop
      vertex 48.8945 82.8496 -2.5
      vertex 49.082 82.9023 -2.5
      vertex 51.9795 83.1924 -2.5
    endloop
  endfacet
  facet normal -0 0 -1
    outer loop
      vertex 53.3643 83.0107 -2.5
      vertex 48.8945 82.8496 -2.5
      vertex 51.9795 83.1924 -2.5
    endloop
  endfacet
  facet normal 0 0 -1
    outer loop
      vertex 53.3643 83.0107 -2.5
      vertex 45.1182 80.9844 -2.5
      vertex 48.8945 82.8496 -2.5
    endloop
  endfacet
  facet normal 0 0 -1
    outer loop
      vertex 48.8945 82.8496 -2.5
      vertex 45.1182 80.9844 -2.5
      vertex 47.8965 82.5762 -2.5
    endloop
  endfacet
  facet normal 0 0 -1
    outer loop
      vertex 53.3643 83.0107 -2.5
      vertex 42.2178 77.6387 -2.5
      vertex 45.1182 80.9844 -2.5
    endloop
  endfacet
  facet normal 0 -0 -1
    outer loop
      vertex 53.3643 83.0107 -2.5
      vertex 61.5059 77.1797 -2.5
      vertex 42.2178 77.6387 -2.5
    endloop
  endfacet
  facet normal 0 0 -1
    outer loop
      vertex 42.2178 77.6387 -2.5
      vertex 61.5059 77.1797 -2.5
      vertex 63.1689 73.2549 -2.5
    endloop
  endfacet
  facet normal 0 0 -1
    outer loop
      vertex 40.1201 72.7012 -2.5
      vertex 42.2178 77.6387 -2.5
      vertex 63.1689 73.2549 -2.5
    endloop
  endfacet
  facet normal 0 0 -1
    outer loop
      vertex 64.1797 69.4561 -2.5
      vertex 40.1201 72.7012 -2.5
      vertex 63.1689 73.2549 -2.5
    endloop
  endfacet
  facet normal -0 0 -1
    outer loop
      vertex 64.1797 69.4561 -2.5
      vertex 38.9863 67.7314 -2.5
      vertex 40.1201 72.7012 -2.5
    endloop
  endfacet
  facet normal 0 -0 -1
    outer loop
      vertex 64.1797 69.4561 -2.5
      vertex 64.418 68.1719 -2.5
      vertex 38.9863 67.7314 -2.5
    endloop
  endfacet
  facet normal 0 0 -1
    outer loop
      vertex 38.9863 67.7314 -2.5
      vertex 64.418 68.1719 -2.5
      vertex 64.5098 67.6729 -2.5
    endloop
  endfacet
  facet normal 0 0 -1
    outer loop
      vertex 38.7598 66.0547 -2.5
      vertex 38.9863 67.7314 -2.5
      vertex 64.5098 67.6729 -2.5
    endloop
  endfacet
  facet normal -0 0 -1
    outer loop
      vertex 64.7402 66.1641 -2.5
      vertex 38.7598 66.0547 -2.5
      vertex 64.5098 67.6729 -2.5
    endloop
  endfacet
  facet normal 0 0 -1
    outer loop
      vertex 64.7402 66.1641 -2.5
      vertex 38.7051 65.6377 -2.5
      vertex 38.7598 66.0547 -2.5
    endloop
  endfacet
  facet normal 0 0 -1
    outer loop
      vertex 64.7402 66.1641 -2.5
      vertex 38.6045 64.374 -2.5
      vertex 38.7051 65.6377 -2.5
    endloop
  endfacet
  facet normal 0 -0 -1
    outer loop
      vertex 64.7402 66.1641 -2.5
      vertex 64.9287 63.9395 -2.5
      vertex 38.6045 64.374 -2.5
    endloop
  endfacet
  facet normal 0 -0 -1
    outer loop
      vertex 38.6045 64.374 -2.5
      vertex 64.9287 63.9395 -2.5
      vertex 38.4775 62.0615 -2.5
    endloop
  endfacet
  facet normal 0 0 -1
    outer loop
      vertex 38.4775 62.0615 -2.5
      vertex 64.9287 63.9395 -2.5
      vertex 65.0176 60.7188 -2.5
    endloop
  endfacet
  facet normal 0 0 -1
    outer loop
      vertex 38.3838 59.3467 -2.5
      vertex 38.4775 62.0615 -2.5
      vertex 65.0176 60.7188 -2.5
    endloop
  endfacet
  facet normal 0 0 -1
    outer loop
      vertex 65.0391 56.9736 -2.5
      vertex 38.3838 59.3467 -2.5
      vertex 65.0176 60.7188 -2.5
    endloop
  endfacet
  facet normal -0 0 -1
    outer loop
      vertex 65.0391 56.9736 -2.5
      vertex 38.3262 56.4551 -2.5
      vertex 38.3838 59.3467 -2.5
    endloop
  endfacet
  facet normal 0 -0 -1
    outer loop
      vertex 65.0391 56.9736 -2.5
      vertex 65.0391 55.7256 -2.5
      vertex 38.3262 56.4551 -2.5
    endloop
  endfacet
  facet normal 0 -0 -1
    outer loop
      vertex 38.3262 56.4551 -2.5
      vertex 65.0391 55.7256 -2.5
      vertex 38.3066 53.6162 -2.5
    endloop
  endfacet
  facet normal 0 -0 -1
    outer loop
      vertex 65.0391 55.7256 -2.5
      vertex 65.0664 46.4951 -2.5
      vertex 38.3271 51.0566 -2.5
    endloop
  endfacet
  facet normal 0 0 -1
    outer loop
      vertex 38.3271 51.0566 -2.5
      vertex 65.0664 46.4951 -2.5
      vertex 38.3936 49.002 -2.5
    endloop
  endfacet
  facet normal 0 0 -1
    outer loop
      vertex 38.3936 49.002 -2.5
      vertex 38.5068 47.6797 -2.5
      vertex 38.4561 48.0068 -2.5
    endloop
  endfacet
  facet normal 0 0 -1
    outer loop
      vertex 38.3936 49.002 -2.5
      vertex 65.0664 46.4951 -2.5
      vertex 38.5068 47.6797 -2.5
    endloop
  endfacet
  facet normal 0 0 -1
    outer loop
      vertex 38.5068 47.6797 -2.5
      vertex 65.0664 46.4951 -2.5
      vertex 38.6758 46.5791 -2.5
    endloop
  endfacet
  facet normal 0 -0 -1
    outer loop
      vertex 38.6758 46.5791 -2.5
      vertex 41.0752 8.05176 -2.5
      vertex 34.9502 45.0273 -2.5
    endloop
  endfacet
  facet normal 0 0 -1
    outer loop
      vertex 17.7109 35.8828 -2.5
      vertex 25.6836 40.6934 -2.5
      vertex 36.4062 6.74316 -2.5
    endloop
  endfacet
  facet normal 0 0 -1
    outer loop
      vertex 36.4062 6.74316 -2.5
      vertex 25.6836 40.6934 -2.5
      vertex 38.792 7.42383 -2.5
    endloop
  endfacet
  facet normal -0 0 -1
    outer loop
      vertex 34.2344 6.11523 -2.5
      vertex 33.5107 5.90625 -2.5
      vertex 17.7109 35.8828 -2.5
    endloop
  endfacet
  facet normal 0 0 -1
    outer loop
      vertex 17.7109 35.8828 -2.5
      vertex 33.5107 5.90625 -2.5
      vertex 32.125 5.50781 -2.5
    endloop
  endfacet
  facet normal 0 -0 -1
    outer loop
      vertex 11.165 30.6904 -2.5
      vertex 23.1533 3.08789 -2.5
      vertex 7.28418 26.6914 -2.5
    endloop
  endfacet
  facet normal 0 0 -1
    outer loop
      vertex 3.23828 20.3574 -2.5
      vertex 5.3457 24.0771 -2.5
      vertex 19.0332 2.1084 -2.5
    endloop
  endfacet
  facet normal 0 0 -1
    outer loop
      vertex 1.20605 15.0684 -2.5
      vertex 3.23828 20.3574 -2.5
      vertex 15.5303 1.39062 -2.5
    endloop
  endfacet
  facet normal 0 0 -1
    outer loop
      vertex 14.6846 1.23438 -2.5
      vertex 1.20605 15.0684 -2.5
      vertex 15.5303 1.39062 -2.5
    endloop
  endfacet
  facet normal 0 0 -1
    outer loop
      vertex 12.1064 0.989258 -2.5
      vertex 0.146484 9.55371 -2.5
      vertex 1.20605 15.0684 -2.5
    endloop
  endfacet
  facet normal -0 0 -1
    outer loop
      vertex 12.1064 0.989258 -2.5
      vertex 8.125 0.847656 -2.5
      vertex 0.146484 9.55371 -2.5
    endloop
  endfacet
  facet normal 0 -0 -1
    outer loop
      vertex 0.146484 9.55371 -2.5
      vertex 4.44434 0.969727 -2.5
      vertex -0.0078125 5.38672 -2.5
    endloop
  endfacet
  facet normal 0 0 -1
    outer loop
      vertex -0.0078125 5.38672 -2.5
      vertex 4.44434 0.969727 -2.5
      vertex 0.120117 4.01465 -2.5
    endloop
  endfacet
  facet normal 0 0 -1
    outer loop
      vertex 0.120117 4.01465 -2.5
      vertex 2.47656 1.18555 -2.5
      vertex 1.92676 1.36133 -2.5
    endloop
  endfacet
  facet normal 0 0 -1
    outer loop
      vertex 0.120117 4.01465 -2.5
      vertex 4.44434 0.969727 -2.5
      vertex 2.47656 1.18555 -2.5
    endloop
  endfacet
  facet normal 0 0 -1
    outer loop
      vertex 1.92676 1.36133 -2.5
      vertex 0.344727 1.84082 -2.5
      vertex 0.120117 4.01465 -2.5
    endloop
  endfacet
  facet normal 0 0 -1
    outer loop
      vertex 0.146484 9.55371 -2.5
      vertex 8.125 0.847656 -2.5
      vertex 4.44434 0.969727 -2.5
    endloop
  endfacet
  facet normal -0 0 -1
    outer loop
      vertex 14.6846 1.23438 -2.5
      vertex 12.1064 0.989258 -2.5
      vertex 1.20605 15.0684 -2.5
    endloop
  endfacet
  facet normal 0 0 -1
    outer loop
      vertex 15.5303 1.39062 -2.5
      vertex 3.23828 20.3574 -2.5
      vertex 16.4082 1.55273 -2.5
    endloop
  endfacet
  facet normal 0 0 -1
    outer loop
      vertex 16.4082 1.55273 -2.5
      vertex 3.23828 20.3574 -2.5
      vertex 19.0332 2.1084 -2.5
    endloop
  endfacet
  facet normal 0 0 -1
    outer loop
      vertex 19.0332 2.1084 -2.5
      vertex 5.3457 24.0771 -2.5
      vertex 6.1875 25.2129 -2.5
    endloop
  endfacet
  facet normal -0 0 -1
    outer loop
      vertex 23.1533 3.08789 -2.5
      vertex 19.0332 2.1084 -2.5
      vertex 6.1875 25.2129 -2.5
    endloop
  endfacet
  facet normal 0 -0 -1
    outer loop
      vertex 7.28418 26.6914 -2.5
      vertex 23.1533 3.08789 -2.5
      vertex 6.1875 25.2129 -2.5
    endloop
  endfacet
  facet normal 0 0 -1
    outer loop
      vertex 11.165 30.6904 -2.5
      vertex 27.958 4.34766 -2.5
      vertex 23.1533 3.08789 -2.5
    endloop
  endfacet
  facet normal 0 0 -1
    outer loop
      vertex 11.165 30.6904 -2.5
      vertex 17.7109 35.8828 -2.5
      vertex 27.958 4.34766 -2.5
    endloop
  endfacet
  facet normal 0 0 -1
    outer loop
      vertex 27.958 4.34766 -2.5
      vertex 17.7109 35.8828 -2.5
      vertex 32.125 5.50781 -2.5
    endloop
  endfacet
  facet normal 0 0 -1
    outer loop
      vertex 50.9053 0.155273 -2.5
      vertex 41.0752 8.05176 -2.5
      vertex 62.4941 7.79395 -2.5
    endloop
  endfacet
  facet normal -0 0 -1
    outer loop
      vertex 36.4062 6.74316 -2.5
      vertex 34.2344 6.11523 -2.5
      vertex 17.7109 35.8828 -2.5
    endloop
  endfacet
  facet normal 0 0 -1
    outer loop
      vertex 38.792 7.42383 -2.5
      vertex 40.8887 8.05176 -2.5
      vertex 40.4189 7.88379 -2.5
    endloop
  endfacet
  facet normal 0 0 -1
    outer loop
      vertex 38.792 7.42383 -2.5
      vertex 25.6836 40.6934 -2.5
      vertex 40.8887 8.05176 -2.5
    endloop
  endfacet
  facet normal 0 0 -1
    outer loop
      vertex 40.8887 8.05176 -2.5
      vertex 25.6836 40.6934 -2.5
      vertex 32.5879 44.0547 -2.5
    endloop
  endfacet
  facet normal 0 -0 -1
    outer loop
      vertex 34.9502 45.0273 -2.5
      vertex 40.8887 8.05176 -2.5
      vertex 32.5879 44.0547 -2.5
    endloop
  endfacet
  facet normal 0 0 -1
    outer loop
      vertex 34.9502 45.0273 -2.5
      vertex 41.0752 8.05176 -2.5
      vertex 40.8887 8.05176 -2.5
    endloop
  endfacet
  facet normal 0 0 -1
    outer loop
      vertex 41.0752 8.05176 -2.5
      vertex 62.8135 7.96484 -2.5
      vertex 62.4941 7.79395 -2.5
    endloop
  endfacet
  facet normal -0 0 -1
    outer loop
      vertex 65.0664 46.4951 -2.5
      vertex 41.0752 8.05176 -2.5
      vertex 38.6758 46.5791 -2.5
    endloop
  endfacet
  facet normal 0 0 -1
    outer loop
      vertex 41.1621 7.68164 -2.5
      vertex 41.0752 8.05176 -2.5
      vertex 50.9053 0.155273 -2.5
    endloop
  endfacet
  facet normal 0 0 -1
    outer loop
      vertex 41.2793 6.95801 -2.5
      vertex 41.1621 7.68164 -2.5
      vertex 47.9805 0.421875 -2.5
    endloop
  endfacet
  facet normal 0 0 -1
    outer loop
      vertex 41.3008 6.78125 -2.5
      vertex 41.2793 6.95801 -2.5
      vertex 41.8125 4.94824 -2.5
    endloop
  endfacet
  facet normal 0 0 -1
    outer loop
      vertex 41.3672 6.31543 -2.5
      vertex 41.3008 6.78125 -2.5
      vertex 41.8125 4.94824 -2.5
    endloop
  endfacet
  facet normal 0 0 -1
    outer loop
      vertex 41.8125 4.94824 -2.5
      vertex 41.2793 6.95801 -2.5
      vertex 42.7715 3.33496 -2.5
    endloop
  endfacet
  facet normal 0 0 -1
    outer loop
      vertex 44.1387 1.99121 -2.5
      vertex 42.7715 3.33496 -2.5
      vertex 41.2793 6.95801 -2.5
    endloop
  endfacet
  facet normal 0 0 -1
    outer loop
      vertex 45.416 1.16992 -2.5
      vertex 44.1387 1.99121 -2.5
      vertex 45.873 0.96582 -2.5
    endloop
  endfacet
  facet normal 0 0 -1
    outer loop
      vertex 45.873 0.96582 -2.5
      vertex 44.1387 1.99121 -2.5
      vertex 47.9805 0.421875 -2.5
    endloop
  endfacet
  facet normal 0 0 -1
    outer loop
      vertex 47.9805 0.421875 -2.5
      vertex 44.1387 1.99121 -2.5
      vertex 41.2793 6.95801 -2.5
    endloop
  endfacet
  facet normal 0 0 -1
    outer loop
      vertex 47.9805 0.421875 -2.5
      vertex 46.3584 0.741211 -2.5
      vertex 45.873 0.96582 -2.5
    endloop
  endfacet
  facet normal 0 0 -1
    outer loop
      vertex 50.9053 0.155273 -2.5
      vertex 47.9805 0.421875 -2.5
      vertex 41.1621 7.68164 -2.5
    endloop
  endfacet
  facet normal 0 0 1
    outer loop
      vertex 56.457 82.1016 2.5
      vertex 55.6729 82.4463 2.5
      vertex 54.6543 82.7695 2.5
    endloop
  endfacet
  facet normal 0 0 1
    outer loop
      vertex 56.3164 0.572266 2.5
      vertex 53.9229 0.197266 2.5
      vertex 55.7422 0.401367 2.5
    endloop
  endfacet
  facet normal 0 0 1
    outer loop
      vertex 61.5762 4.65234 2.5
      vertex 58.6191 1.51562 2.5
      vertex 60.3701 2.87305 2.5
    endloop
  endfacet
  facet normal 0 0 1
    outer loop
      vertex 61.5762 4.65234 2.5
      vertex 62.1514 6.30078 2.5
      vertex 62.2441 6.86523 2.5
    endloop
  endfacet
  facet normal 0 -0 1
    outer loop
      vertex 61.5762 4.65234 2.5
      vertex 62.2441 6.86523 2.5
      vertex 58.6191 1.51562 2.5
    endloop
  endfacet
  facet normal 0 -0 1
    outer loop
      vertex 62.2441 6.86523 2.5
      vertex 62.2793 7.09863 2.5
      vertex 58.6191 1.51562 2.5
    endloop
  endfacet
  facet normal 0 0 1
    outer loop
      vertex 62.2793 7.09863 2.5
      vertex 56.9102 0.743164 2.5
      vertex 58.6191 1.51562 2.5
    endloop
  endfacet
  facet normal 0 0 1
    outer loop
      vertex 56.3164 0.572266 2.5
      vertex 56.9102 0.743164 2.5
      vertex 62.2793 7.09863 2.5
    endloop
  endfacet
  facet normal 0 -0 1
    outer loop
      vertex 56.3164 0.572266 2.5
      vertex 62.2793 7.09863 2.5
      vertex 53.9229 0.197266 2.5
    endloop
  endfacet
  facet normal 0 -0 1
    outer loop
      vertex 62.2793 7.09863 2.5
      vertex 62.4941 7.79395 2.5
      vertex 53.9229 0.197266 2.5
    endloop
  endfacet
  facet normal 0 0 1
    outer loop
      vertex 62.4941 7.79395 2.5
      vertex 50.9053 0.155273 2.5
      vertex 53.9229 0.197266 2.5
    endloop
  endfacet
  facet normal 0 0 1
    outer loop
      vertex 83.3262 37.4766 2.5
      vertex 76.2617 41.4844 2.5
      vertex 64.834 7.36523 2.5
    endloop
  endfacet
  facet normal 0 0 1
    outer loop
      vertex 89.3467 33.2373 2.5
      vertex 83.3262 37.4766 2.5
      vertex 70.6738 5.69434 2.5
    endloop
  endfacet
  facet normal 0 0 1
    outer loop
      vertex 94.168 28.8535 2.5
      vertex 93.0537 30.0361 2.5
      vertex 77.6445 3.79688 2.5
    endloop
  endfacet
  facet normal 0 0 1
    outer loop
      vertex 102.512 1.75391 2.5
      vertex 102.81 1.97461 2.5
      vertex 103.019 2.27246 2.5
    endloop
  endfacet
  facet normal 0 0 1
    outer loop
      vertex 103.328 4.05273 2.5
      vertex 101.04 1.18555 2.5
      vertex 101.563 1.36133 2.5
    endloop
  endfacet
  facet normal 0 -0 1
    outer loop
      vertex 99.1143 0.96582 2.5
      vertex 103.5 6.65723 2.5
      vertex 95.4648 0.836914 2.5
    endloop
  endfacet
  facet normal 0 0 1
    outer loop
      vertex 102.512 1.75391 2.5
      vertex 103.019 2.27246 2.5
      vertex 103.161 2.68848 2.5
    endloop
  endfacet
  facet normal 0 -0 1
    outer loop
      vertex 102.103 1.56445 2.5
      vertex 103.256 3.26758 2.5
      vertex 101.698 1.41113 2.5
    endloop
  endfacet
  facet normal 0 -0 1
    outer loop
      vertex 102.512 1.75391 2.5
      vertex 103.161 2.68848 2.5
      vertex 102.103 1.56445 2.5
    endloop
  endfacet
  facet normal 0 0 1
    outer loop
      vertex 103.256 3.26758 2.5
      vertex 102.103 1.56445 2.5
      vertex 103.161 2.68848 2.5
    endloop
  endfacet
  facet normal 0 0 1
    outer loop
      vertex 101.563 1.36133 2.5
      vertex 101.698 1.41113 2.5
      vertex 103.256 3.26758 2.5
    endloop
  endfacet
  facet normal 0 0 1
    outer loop
      vertex 101.563 1.36133 2.5
      vertex 103.256 3.26758 2.5
      vertex 103.328 4.05273 2.5
    endloop
  endfacet
  facet normal 0 -0 1
    outer loop
      vertex 101.04 1.18555 2.5
      vertex 103.328 4.05273 2.5
      vertex 99.1143 0.96582 2.5
    endloop
  endfacet
  facet normal 0 -0 1
    outer loop
      vertex 103.328 4.05273 2.5
      vertex 103.38 4.83008 2.5
      vertex 99.1143 0.96582 2.5
    endloop
  endfacet
  facet normal 0 -0 1
    outer loop
      vertex 103.38 4.83008 2.5
      vertex 103.397 5.08789 2.5
      vertex 99.1143 0.96582 2.5
    endloop
  endfacet
  facet normal 0 -0 1
    outer loop
      vertex 103.397 5.08789 2.5
      vertex 103.5 6.65723 2.5
      vertex 99.1143 0.96582 2.5
    endloop
  endfacet
  facet normal 0 0 1
    outer loop
      vertex 103.5 6.65723 2.5
      vertex 103.113 11.4131 2.5
      vertex 95.4648 0.836914 2.5
    endloop
  endfacet
  facet normal 0 0 1
    outer loop
      vertex 103.113 11.4131 2.5
      vertex 91.4561 0.976562 2.5
      vertex 95.4648 0.836914 2.5
    endloop
  endfacet
  facet normal 0 0 1
    outer loop
      vertex 101.45 17.5645 2.5
      vertex 91.4561 0.976562 2.5
      vertex 103.113 11.4131 2.5
    endloop
  endfacet
  facet normal -0 0 1
    outer loop
      vertex 88.8008 1.23242 2.5
      vertex 91.4561 0.976562 2.5
      vertex 101.45 17.5645 2.5
    endloop
  endfacet
  facet normal 0 -0 1
    outer loop
      vertex 88.8008 1.23242 2.5
      vertex 101.45 17.5645 2.5
      vertex 87.9297 1.39062 2.5
    endloop
  endfacet
  facet normal 0 0 1
    outer loop
      vertex 101.45 17.5645 2.5
      vertex 86.8154 1.59277 2.5
      vertex 87.9297 1.39062 2.5
    endloop
  endfacet
  facet normal 0 0 1
    outer loop
      vertex 98.4512 23.418 2.5
      vertex 86.8154 1.59277 2.5
      vertex 101.45 17.5645 2.5
    endloop
  endfacet
  facet normal -0 0 1
    outer loop
      vertex 83.4971 2.33398 2.5
      vertex 86.8154 1.59277 2.5
      vertex 98.4512 23.418 2.5
    endloop
  endfacet
  facet normal 0 0 1
    outer loop
      vertex 83.4971 2.33398 2.5
      vertex 98.4512 23.418 2.5
      vertex 95.3516 27.6035 2.5
    endloop
  endfacet
  facet normal 0 -0 1
    outer loop
      vertex 83.4971 2.33398 2.5
      vertex 95.3516 27.6035 2.5
      vertex 77.6445 3.79688 2.5
    endloop
  endfacet
  facet normal 0 0 1
    outer loop
      vertex 95.3516 27.6035 2.5
      vertex 94.168 28.8535 2.5
      vertex 77.6445 3.79688 2.5
    endloop
  endfacet
  facet normal 0 0 1
    outer loop
      vertex 77.6445 3.79688 2.5
      vertex 93.0537 30.0361 2.5
      vertex 89.3467 33.2373 2.5
    endloop
  endfacet
  facet normal 0 -0 1
    outer loop
      vertex 77.6445 3.79688 2.5
      vertex 89.3467 33.2373 2.5
      vertex 70.6738 5.69434 2.5
    endloop
  endfacet
  facet normal 0 -0 1
    outer loop
      vertex 70.6738 5.69434 2.5
      vertex 83.3262 37.4766 2.5
      vertex 64.834 7.36523 2.5
    endloop
  endfacet
  facet normal 0 -0 1
    outer loop
      vertex 64.834 7.36523 2.5
      vertex 76.2617 41.4844 2.5
      vertex 62.8936 7.93848 2.5
    endloop
  endfacet
  facet normal 0 0 1
    outer loop
      vertex 76.2617 41.4844 2.5
      vertex 62.8135 7.96484 2.5
      vertex 62.8936 7.93848 2.5
    endloop
  endfacet
  facet normal 0 0 1
    outer loop
      vertex 70.3311 44.3232 2.5
      vertex 62.8135 7.96484 2.5
      vertex 76.2617 41.4844 2.5
    endloop
  endfacet
  facet normal 0 0 1
    outer loop
      vertex 68.3135 45.168 2.5
      vertex 62.8135 7.96484 2.5
      vertex 70.3311 44.3232 2.5
    endloop
  endfacet
  facet normal 0 0 1
    outer loop
      vertex 65.0664 46.4951 2.5
      vertex 62.8135 7.96484 2.5
      vertex 68.3135 45.168 2.5
    endloop
  endfacet
  facet normal -0 0 1
    outer loop
      vertex 41.0752 8.05176 2.5
      vertex 62.8135 7.96484 2.5
      vertex 65.0664 46.4951 2.5
    endloop
  endfacet
  facet normal -0 0 1
    outer loop
      vertex 38.3066 53.6162 2.5
      vertex 38.3271 51.0566 2.5
      vertex 65.0391 55.7256 2.5
    endloop
  endfacet
  facet normal 0 0 1
    outer loop
      vertex 51.0566 83.2471 2.5
      vertex 51.9795 83.1924 2.5
      vertex 51.5176 83.2441 2.5
    endloop
  endfacet
  facet normal 0 0 1
    outer loop
      vertex 56.7119 81.9736 2.5
      vertex 53.3643 83.0107 2.5
      vertex 59.3711 80.0527 2.5
    endloop
  endfacet
  facet normal 0 0 1
    outer loop
      vertex 53.3643 83.0107 2.5
      vertex 61.5059 77.1797 2.5
      vertex 59.3711 80.0527 2.5
    endloop
  endfacet
  facet normal 0 0 1
    outer loop
      vertex 56.457 82.1016 2.5
      vertex 54.6543 82.7695 2.5
      vertex 53.3643 83.0107 2.5
    endloop
  endfacet
  facet normal 0 0 1
    outer loop
      vertex 59.3711 80.0527 2.5
      vertex 57.4336 81.6104 2.5
      vertex 56.7119 81.9736 2.5
    endloop
  endfacet
  facet normal 0 0 1
    outer loop
      vertex 56.7119 81.9736 2.5
      vertex 56.457 82.1016 2.5
      vertex 53.3643 83.0107 2.5
    endloop
  endfacet
  facet normal -0 0 1
    outer loop
      vertex 50.4062 83.1748 2.5
      vertex 49.6562 83.0391 2.5
      vertex 51.9795 83.1924 2.5
    endloop
  endfacet
  facet normal 0 0 1
    outer loop
      vertex 50.4062 83.1748 2.5
      vertex 51.9795 83.1924 2.5
      vertex 51.0566 83.2471 2.5
    endloop
  endfacet
  facet normal -0 0 1
    outer loop
      vertex 51.0566 83.2471 2.5
      vertex 51.5176 83.2441 2.5
      vertex 51.4053 83.2598 2.5
    endloop
  endfacet
  facet normal 0 0 1
    outer loop
      vertex 51.9795 83.1924 2.5
      vertex 49.6562 83.0391 2.5
      vertex 49.082 82.9023 2.5
    endloop
  endfacet
  facet normal 0 0 1
    outer loop
      vertex 51.9795 83.1924 2.5
      vertex 49.082 82.9023 2.5
      vertex 48.8945 82.8496 2.5
    endloop
  endfacet
  facet normal 0 0 1
    outer loop
      vertex 51.9795 83.1924 2.5
      vertex 48.8945 82.8496 2.5
      vertex 53.3643 83.0107 2.5
    endloop
  endfacet
  facet normal -0 0 1
    outer loop
      vertex 48.8945 82.8496 2.5
      vertex 45.1182 80.9844 2.5
      vertex 53.3643 83.0107 2.5
    endloop
  endfacet
  facet normal -0 0 1
    outer loop
      vertex 47.8965 82.5762 2.5
      vertex 45.1182 80.9844 2.5
      vertex 48.8945 82.8496 2.5
    endloop
  endfacet
  facet normal -0 0 1
    outer loop
      vertex 45.1182 80.9844 2.5
      vertex 42.2178 77.6387 2.5
      vertex 53.3643 83.0107 2.5
    endloop
  endfacet
  facet normal -0 0 1
    outer loop
      vertex 42.2178 77.6387 2.5
      vertex 61.5059 77.1797 2.5
      vertex 53.3643 83.0107 2.5
    endloop
  endfacet
  facet normal 0 0 1
    outer loop
      vertex 63.1689 73.2549 2.5
      vertex 61.5059 77.1797 2.5
      vertex 42.2178 77.6387 2.5
    endloop
  endfacet
  facet normal 0 0 1
    outer loop
      vertex 63.1689 73.2549 2.5
      vertex 42.2178 77.6387 2.5
      vertex 40.1201 72.7012 2.5
    endloop
  endfacet
  facet normal 0 0 1
    outer loop
      vertex 63.1689 73.2549 2.5
      vertex 40.1201 72.7012 2.5
      vertex 64.1797 69.4561 2.5
    endloop
  endfacet
  facet normal 0 0 1
    outer loop
      vertex 40.1201 72.7012 2.5
      vertex 38.9863 67.7314 2.5
      vertex 64.1797 69.4561 2.5
    endloop
  endfacet
  facet normal 0 0 1
    outer loop
      vertex 38.9863 67.7314 2.5
      vertex 64.418 68.1719 2.5
      vertex 64.1797 69.4561 2.5
    endloop
  endfacet
  facet normal 0 0 1
    outer loop
      vertex 64.5098 67.6729 2.5
      vertex 64.418 68.1719 2.5
      vertex 38.9863 67.7314 2.5
    endloop
  endfacet
  facet normal 0 0 1
    outer loop
      vertex 64.5098 67.6729 2.5
      vertex 38.9863 67.7314 2.5
      vertex 38.7598 66.0547 2.5
    endloop
  endfacet
  facet normal 0 0 1
    outer loop
      vertex 64.5098 67.6729 2.5
      vertex 38.7598 66.0547 2.5
      vertex 64.7402 66.1641 2.5
    endloop
  endfacet
  facet normal -0 0 1
    outer loop
      vertex 38.7598 66.0547 2.5
      vertex 38.7051 65.6377 2.5
      vertex 64.7402 66.1641 2.5
    endloop
  endfacet
  facet normal -0 0 1
    outer loop
      vertex 38.7051 65.6377 2.5
      vertex 38.6045 64.374 2.5
      vertex 64.7402 66.1641 2.5
    endloop
  endfacet
  facet normal -0 0 1
    outer loop
      vertex 38.6045 64.374 2.5
      vertex 64.9287 63.9395 2.5
      vertex 64.7402 66.1641 2.5
    endloop
  endfacet
  facet normal 0 0 1
    outer loop
      vertex 38.4775 62.0615 2.5
      vertex 64.9287 63.9395 2.5
      vertex 38.6045 64.374 2.5
    endloop
  endfacet
  facet normal 0 0 1
    outer loop
      vertex 65.0176 60.7188 2.5
      vertex 64.9287 63.9395 2.5
      vertex 38.4775 62.0615 2.5
    endloop
  endfacet
  facet normal 0 0 1
    outer loop
      vertex 65.0176 60.7188 2.5
      vertex 38.4775 62.0615 2.5
      vertex 38.3838 59.3467 2.5
    endloop
  endfacet
  facet normal 0 0 1
    outer loop
      vertex 65.0176 60.7188 2.5
      vertex 38.3838 59.3467 2.5
      vertex 65.0391 56.9736 2.5
    endloop
  endfacet
  facet normal 0 0 1
    outer loop
      vertex 38.3838 59.3467 2.5
      vertex 38.3262 56.4551 2.5
      vertex 65.0391 56.9736 2.5
    endloop
  endfacet
  facet normal -0 0 1
    outer loop
      vertex 38.3262 56.4551 2.5
      vertex 65.0391 55.7256 2.5
      vertex 65.0391 56.9736 2.5
    endloop
  endfacet
  facet normal 0 0 1
    outer loop
      vertex 38.3066 53.6162 2.5
      vertex 65.0391 55.7256 2.5
      vertex 38.3262 56.4551 2.5
    endloop
  endfacet
  facet normal -0 0 1
    outer loop
      vertex 38.3271 51.0566 2.5
      vertex 65.0664 46.4951 2.5
      vertex 65.0391 55.7256 2.5
    endloop
  endfacet
  facet normal -0 -0 1
    outer loop
      vertex 38.3936 49.002 2.5
      vertex 65.0664 46.4951 2.5
      vertex 38.3271 51.0566 2.5
    endloop
  endfacet
  facet normal -0 -0 1
    outer loop
      vertex 38.4561 48.0068 2.5
      vertex 38.5068 47.6797 2.5
      vertex 38.3936 49.002 2.5
    endloop
  endfacet
  facet normal -0 -0 1
    outer loop
      vertex 38.5068 47.6797 2.5
      vertex 65.0664 46.4951 2.5
      vertex 38.3936 49.002 2.5
    endloop
  endfacet
  facet normal -0 -0 1
    outer loop
      vertex 38.6758 46.5791 2.5
      vertex 65.0664 46.4951 2.5
      vertex 38.5068 47.6797 2.5
    endloop
  endfacet
  facet normal -0 0 1
    outer loop
      vertex 34.9502 45.0273 2.5
      vertex 41.0752 8.05176 2.5
      vertex 38.6758 46.5791 2.5
    endloop
  endfacet
  facet normal 0 0 1
    outer loop
      vertex 36.4062 6.74316 2.5
      vertex 25.6836 40.6934 2.5
      vertex 17.7109 35.8828 2.5
    endloop
  endfacet
  facet normal 0 0 1
    outer loop
      vertex 38.792 7.42383 2.5
      vertex 25.6836 40.6934 2.5
      vertex 36.4062 6.74316 2.5
    endloop
  endfacet
  facet normal 0 0 1
    outer loop
      vertex 17.7109 35.8828 2.5
      vertex 33.5107 5.90625 2.5
      vertex 34.2344 6.11523 2.5
    endloop
  endfacet
  facet normal 0 -0 1
    outer loop
      vertex 32.125 5.50781 2.5
      vertex 33.5107 5.90625 2.5
      vertex 17.7109 35.8828 2.5
    endloop
  endfacet
  facet normal -0 0 1
    outer loop
      vertex 7.28418 26.6914 2.5
      vertex 23.1533 3.08789 2.5
      vertex 11.165 30.6904 2.5
    endloop
  endfacet
  facet normal 0 0 1
    outer loop
      vertex 19.0332 2.1084 2.5
      vertex 5.3457 24.0771 2.5
      vertex 3.23828 20.3574 2.5
    endloop
  endfacet
  facet normal 0 0 1
    outer loop
      vertex 15.5303 1.39062 2.5
      vertex 3.23828 20.3574 2.5
      vertex 1.20605 15.0684 2.5
    endloop
  endfacet
  facet normal 0 0 1
    outer loop
      vertex 15.5303 1.39062 2.5
      vertex 1.20605 15.0684 2.5
      vertex 14.6846 1.23438 2.5
    endloop
  endfacet
  facet normal 0 0 1
    outer loop
      vertex 1.20605 15.0684 2.5
      vertex 0.146484 9.55371 2.5
      vertex 12.1064 0.989258 2.5
    endloop
  endfacet
  facet normal 0 0 1
    outer loop
      vertex 0.146484 9.55371 2.5
      vertex 8.125 0.847656 2.5
      vertex 12.1064 0.989258 2.5
    endloop
  endfacet
  facet normal -0 0 1
    outer loop
      vertex -0.0078125 5.38672 2.5
      vertex 4.44434 0.969727 2.5
      vertex 0.146484 9.55371 2.5
    endloop
  endfacet
  facet normal -0 -0 1
    outer loop
      vertex 0.120117 4.01465 2.5
      vertex 4.44434 0.969727 2.5
      vertex -0.0078125 5.38672 2.5
    endloop
  endfacet
  facet normal -0 -0 1
    outer loop
      vertex 1.92676 1.36133 2.5
      vertex 2.47656 1.18555 2.5
      vertex 0.120117 4.01465 2.5
    endloop
  endfacet
  facet normal -0 -0 1
    outer loop
      vertex 2.47656 1.18555 2.5
      vertex 4.44434 0.969727 2.5
      vertex 0.120117 4.01465 2.5
    endloop
  endfacet
  facet normal 0 0 1
    outer loop
      vertex 0.120117 4.01465 2.5
      vertex 0.344727 1.84082 2.5
      vertex 1.92676 1.36133 2.5
    endloop
  endfacet
  facet normal -0 -0 1
    outer loop
      vertex 4.44434 0.969727 2.5
      vertex 8.125 0.847656 2.5
      vertex 0.146484 9.55371 2.5
    endloop
  endfacet
  facet normal 0 0 1
    outer loop
      vertex 1.20605 15.0684 2.5
      vertex 12.1064 0.989258 2.5
      vertex 14.6846 1.23438 2.5
    endloop
  endfacet
  facet normal 0 0 1
    outer loop
      vertex 16.4082 1.55273 2.5
      vertex 3.23828 20.3574 2.5
      vertex 15.5303 1.39062 2.5
    endloop
  endfacet
  facet normal 0 0 1
    outer loop
      vertex 19.0332 2.1084 2.5
      vertex 3.23828 20.3574 2.5
      vertex 16.4082 1.55273 2.5
    endloop
  endfacet
  facet normal 0 0 1
    outer loop
      vertex 6.1875 25.2129 2.5
      vertex 5.3457 24.0771 2.5
      vertex 19.0332 2.1084 2.5
    endloop
  endfacet
  facet normal 0 0 1
    outer loop
      vertex 6.1875 25.2129 2.5
      vertex 19.0332 2.1084 2.5
      vertex 23.1533 3.08789 2.5
    endloop
  endfacet
  facet normal -0 0 1
    outer loop
      vertex 6.1875 25.2129 2.5
      vertex 23.1533 3.08789 2.5
      vertex 7.28418 26.6914 2.5
    endloop
  endfacet
  facet normal 0 -0 1
    outer loop
      vertex 23.1533 3.08789 2.5
      vertex 27.958 4.34766 2.5
      vertex 11.165 30.6904 2.5
    endloop
  endfacet
  facet normal 0 0 1
    outer loop
      vertex 27.958 4.34766 2.5
      vertex 17.7109 35.8828 2.5
      vertex 11.165 30.6904 2.5
    endloop
  endfacet
  facet normal 0 0 1
    outer loop
      vertex 32.125 5.50781 2.5
      vertex 17.7109 35.8828 2.5
      vertex 27.958 4.34766 2.5
    endloop
  endfacet
  facet normal 0 0 1
    outer loop
      vertex 62.4941 7.79395 2.5
      vertex 41.0752 8.05176 2.5
      vertex 50.9053 0.155273 2.5
    endloop
  endfacet
  facet normal 0 0 1
    outer loop
      vertex 17.7109 35.8828 2.5
      vertex 34.2344 6.11523 2.5
      vertex 36.4062 6.74316 2.5
    endloop
  endfacet
  facet normal 0 -0 1
    outer loop
      vertex 40.4189 7.88379 2.5
      vertex 40.8887 8.05176 2.5
      vertex 38.792 7.42383 2.5
    endloop
  endfacet
  facet normal 0 0 1
    outer loop
      vertex 40.8887 8.05176 2.5
      vertex 25.6836 40.6934 2.5
      vertex 38.792 7.42383 2.5
    endloop
  endfacet
  facet normal 0 0 1
    outer loop
      vertex 32.5879 44.0547 2.5
      vertex 25.6836 40.6934 2.5
      vertex 40.8887 8.05176 2.5
    endloop
  endfacet
  facet normal -0 0 1
    outer loop
      vertex 32.5879 44.0547 2.5
      vertex 40.8887 8.05176 2.5
      vertex 34.9502 45.0273 2.5
    endloop
  endfacet
  facet normal 0 -0 1
    outer loop
      vertex 40.8887 8.05176 2.5
      vertex 41.0752 8.05176 2.5
      vertex 34.9502 45.0273 2.5
    endloop
  endfacet
  facet normal 0 -0 1
    outer loop
      vertex 62.4941 7.79395 2.5
      vertex 62.8135 7.96484 2.5
      vertex 41.0752 8.05176 2.5
    endloop
  endfacet
  facet normal 0 0 1
    outer loop
      vertex 38.6758 46.5791 2.5
      vertex 41.0752 8.05176 2.5
      vertex 65.0664 46.4951 2.5
    endloop
  endfacet
  facet normal 0 0 1
    outer loop
      vertex 50.9053 0.155273 2.5
      vertex 41.0752 8.05176 2.5
      vertex 41.1621 7.68164 2.5
    endloop
  endfacet
  facet normal 0 0 1
    outer loop
      vertex 47.9805 0.421875 2.5
      vertex 41.1621 7.68164 2.5
      vertex 41.2793 6.95801 2.5
    endloop
  endfacet
  facet normal 0 0 1
    outer loop
      vertex 41.8125 4.94824 2.5
      vertex 41.2793 6.95801 2.5
      vertex 41.3008 6.78125 2.5
    endloop
  endfacet
  facet normal 0 0 1
    outer loop
      vertex 41.8125 4.94824 2.5
      vertex 41.3008 6.78125 2.5
      vertex 41.3672 6.31543 2.5
    endloop
  endfacet
  facet normal 0 0 1
    outer loop
      vertex 42.7715 3.33496 2.5
      vertex 41.2793 6.95801 2.5
      vertex 41.8125 4.94824 2.5
    endloop
  endfacet
  facet normal 0 0 1
    outer loop
      vertex 41.2793 6.95801 2.5
      vertex 42.7715 3.33496 2.5
      vertex 44.1387 1.99121 2.5
    endloop
  endfacet
  facet normal 0 0 1
    outer loop
      vertex 45.873 0.96582 2.5
      vertex 44.1387 1.99121 2.5
      vertex 45.416 1.16992 2.5
    endloop
  endfacet
  facet normal 0 0 1
    outer loop
      vertex 47.9805 0.421875 2.5
      vertex 44.1387 1.99121 2.5
      vertex 45.873 0.96582 2.5
    endloop
  endfacet
  facet normal 0 0 1
    outer loop
      vertex 41.2793 6.95801 2.5
      vertex 44.1387 1.99121 2.5
      vertex 47.9805 0.421875 2.5
    endloop
  endfacet
  facet normal 0 0 1
    outer loop
      vertex 45.873 0.96582 2.5
      vertex 46.3584 0.741211 2.5
      vertex 47.9805 0.421875 2.5
    endloop
  endfacet
  facet normal 0 0 1
    outer loop
      vertex 41.1621 7.68164 2.5
      vertex 47.9805 0.421875 2.5
      vertex 50.9053 0.155273 2.5
    endloop
  endfacet
  facet normal 0.111487 -0.993766 0
    outer loop
      vertex 55.7422 0.401367 -2.5
      vertex 53.9229 0.197266 2.5
      vertex 53.9229 0.197266 -2.5
    endloop
  endfacet
  facet normal 0.111487 -0.993766 0
    outer loop
      vertex 55.7422 0.401367 -2.5
      vertex 55.7422 0.401367 2.5
      vertex 53.9229 0.197266 2.5
    endloop
  endfacet
  facet normal 0.285263 -0.958449 0
    outer loop
      vertex 56.3164 0.572266 -2.5
      vertex 55.7422 0.401367 2.5
      vertex 55.7422 0.401367 -2.5
    endloop
  endfacet
  facet normal 0.285263 -0.958449 0
    outer loop
      vertex 56.3164 0.572266 -2.5
      vertex 56.3164 0.572266 2.5
      vertex 55.7422 0.401367 2.5
    endloop
  endfacet
  facet normal 0.276577 -0.960992 0
    outer loop
      vertex 56.9102 0.743164 -2.5
      vertex 56.3164 0.572266 2.5
      vertex 56.3164 0.572266 -2.5
    endloop
  endfacet
  facet normal 0.276577 -0.960992 0
    outer loop
      vertex 56.9102 0.743164 -2.5
      vertex 56.9102 0.743164 2.5
      vertex 56.3164 0.572266 2.5
    endloop
  endfacet
  facet normal 0.411894 -0.911232 0
    outer loop
      vertex 58.6191 1.51562 -2.5
      vertex 56.9102 0.743164 2.5
      vertex 56.9102 0.743164 -2.5
    endloop
  endfacet
  facet normal 0.411894 -0.911232 0
    outer loop
      vertex 58.6191 1.51562 -2.5
      vertex 58.6191 1.51562 2.5
      vertex 56.9102 0.743164 2.5
    endloop
  endfacet
  facet normal 0.612686 -0.790327 0
    outer loop
      vertex 60.3701 2.87305 -2.5
      vertex 58.6191 1.51562 2.5
      vertex 58.6191 1.51562 -2.5
    endloop
  endfacet
  facet normal 0.612686 -0.790327 0
    outer loop
      vertex 60.3701 2.87305 -2.5
      vertex 60.3701 2.87305 2.5
      vertex 58.6191 1.51562 2.5
    endloop
  endfacet
  facet normal 0.827751 -0.561095 0
    outer loop
      vertex 61.5762 4.65234 -2.5
      vertex 60.3701 2.87305 2.5
      vertex 60.3701 2.87305 -2.5
    endloop
  endfacet
  facet normal 0.827751 -0.561095 0
    outer loop
      vertex 61.5762 4.65234 -2.5
      vertex 61.5762 4.65234 2.5
      vertex 60.3701 2.87305 2.5
    endloop
  endfacet
  facet normal 0.944171 -0.329455 0
    outer loop
      vertex 62.1514 6.30078 -2.5
      vertex 61.5762 4.65234 2.5
      vertex 61.5762 4.65234 -2.5
    endloop
  endfacet
  facet normal 0.944171 -0.329455 0
    outer loop
      vertex 62.1514 6.30078 -2.5
      vertex 62.1514 6.30078 2.5
      vertex 61.5762 4.65234 2.5
    endloop
  endfacet
  facet normal 0.986781 -0.16206 0
    outer loop
      vertex 62.2441 6.86523 -2.5
      vertex 62.1514 6.30078 2.5
      vertex 62.1514 6.30078 -2.5
    endloop
  endfacet
  facet normal 0.986781 -0.16206 0
    outer loop
      vertex 62.2441 6.86523 -2.5
      vertex 62.2441 6.86523 2.5
      vertex 62.1514 6.30078 2.5
    endloop
  endfacet
  facet normal 0.988818 -0.149128 0
    outer loop
      vertex 62.2793 7.09863 -2.5
      vertex 62.2441 6.86523 2.5
      vertex 62.2441 6.86523 -2.5
    endloop
  endfacet
  facet normal 0.988818 -0.149128 0
    outer loop
      vertex 62.2793 7.09863 -2.5
      vertex 62.2793 7.09863 2.5
      vertex 62.2441 6.86523 2.5
    endloop
  endfacet
  facet normal 0.955448 -0.295159 0
    outer loop
      vertex 62.4941 7.79395 -2.5
      vertex 62.2793 7.09863 2.5
      vertex 62.2793 7.09863 -2.5
    endloop
  endfacet
  facet normal 0.955448 -0.295159 0
    outer loop
      vertex 62.4941 7.79395 -2.5
      vertex 62.4941 7.79395 2.5
      vertex 62.2793 7.09863 2.5
    endloop
  endfacet
  facet normal 0.471756 -0.881729 0
    outer loop
      vertex 62.8135 7.96484 -2.5
      vertex 62.4941 7.79395 2.5
      vertex 62.4941 7.79395 -2.5
    endloop
  endfacet
  facet normal 0.471756 -0.881729 0
    outer loop
      vertex 62.8135 7.96484 -2.5
      vertex 62.8135 7.96484 2.5
      vertex 62.4941 7.79395 2.5
    endloop
  endfacet
  facet normal -0.312597 -0.949886 0
    outer loop
      vertex 62.8936 7.93848 -2.5
      vertex 62.8135 7.96484 2.5
      vertex 62.8135 7.96484 -2.5
    endloop
  endfacet
  facet normal -0.312597 -0.949886 0
    outer loop
      vertex 62.8936 7.93848 -2.5
      vertex 62.8936 7.93848 2.5
      vertex 62.8135 7.96484 2.5
    endloop
  endfacet
  facet normal -0.283323 -0.959024 0
    outer loop
      vertex 64.834 7.36523 -2.5
      vertex 62.8936 7.93848 2.5
      vertex 62.8936 7.93848 -2.5
    endloop
  endfacet
  facet normal -0.283323 -0.959024 0
    outer loop
      vertex 64.834 7.36523 -2.5
      vertex 64.834 7.36523 2.5
      vertex 62.8936 7.93848 2.5
    endloop
  endfacet
  facet normal -0.275083 -0.961421 0
    outer loop
      vertex 70.6738 5.69434 -2.5
      vertex 64.834 7.36523 2.5
      vertex 64.834 7.36523 -2.5
    endloop
  endfacet
  facet normal -0.275083 -0.961421 0
    outer loop
      vertex 70.6738 5.69434 -2.5
      vertex 70.6738 5.69434 2.5
      vertex 64.834 7.36523 2.5
    endloop
  endfacet
  facet normal -0.262648 -0.964892 0
    outer loop
      vertex 77.6445 3.79688 -2.5
      vertex 70.6738 5.69434 2.5
      vertex 70.6738 5.69434 -2.5
    endloop
  endfacet
  facet normal -0.262648 -0.964892 0
    outer loop
      vertex 77.6445 3.79688 -2.5
      vertex 77.6445 3.79688 2.5
      vertex 70.6738 5.69434 2.5
    endloop
  endfacet
  facet normal -0.242497 -0.970152 0
    outer loop
      vertex 83.4971 2.33398 -2.5
      vertex 77.6445 3.79688 2.5
      vertex 77.6445 3.79688 -2.5
    endloop
  endfacet
  facet normal -0.242497 -0.970152 0
    outer loop
      vertex 83.4971 2.33398 -2.5
      vertex 83.4971 2.33398 2.5
      vertex 77.6445 3.79688 2.5
    endloop
  endfacet
  facet normal -0.217998 -0.975949 0
    outer loop
      vertex 86.8154 1.59277 -2.5
      vertex 83.4971 2.33398 2.5
      vertex 83.4971 2.33398 -2.5
    endloop
  endfacet
  facet normal -0.217998 -0.975949 0
    outer loop
      vertex 86.8154 1.59277 -2.5
      vertex 86.8154 1.59277 2.5
      vertex 83.4971 2.33398 2.5
    endloop
  endfacet
  facet normal -0.178501 -0.98394 0
    outer loop
      vertex 87.9297 1.39062 -2.5
      vertex 86.8154 1.59277 2.5
      vertex 86.8154 1.59277 -2.5
    endloop
  endfacet
  facet normal -0.178501 -0.98394 0
    outer loop
      vertex 87.9297 1.39062 -2.5
      vertex 87.9297 1.39062 2.5
      vertex 86.8154 1.59277 2.5
    endloop
  endfacet
  facet normal -0.178687 -0.983906 0
    outer loop
      vertex 88.8008 1.23242 -2.5
      vertex 87.9297 1.39062 2.5
      vertex 87.9297 1.39062 -2.5
    endloop
  endfacet
  facet normal -0.178687 -0.983906 0
    outer loop
      vertex 88.8008 1.23242 -2.5
      vertex 88.8008 1.23242 2.5
      vertex 87.9297 1.39062 2.5
    endloop
  endfacet
  facet normal -0.0959132 -0.99539 0
    outer loop
      vertex 91.4561 0.976562 -2.5
      vertex 88.8008 1.23242 2.5
      vertex 88.8008 1.23242 -2.5
    endloop
  endfacet
  facet normal -0.0959132 -0.99539 0
    outer loop
      vertex 91.4561 0.976562 -2.5
      vertex 91.4561 0.976562 2.5
      vertex 88.8008 1.23242 2.5
    endloop
  endfacet
  facet normal -0.0348151 -0.999394 0
    outer loop
      vertex 95.4648 0.836914 -2.5
      vertex 91.4561 0.976562 2.5
      vertex 91.4561 0.976562 -2.5
    endloop
  endfacet
  facet normal -0.0348151 -0.999394 0
    outer loop
      vertex 95.4648 0.836914 -2.5
      vertex 95.4648 0.836914 2.5
      vertex 91.4561 0.976562 2.5
    endloop
  endfacet
  facet normal 0.0352995 -0.999377 0
    outer loop
      vertex 99.1143 0.96582 -2.5
      vertex 95.4648 0.836914 2.5
      vertex 95.4648 0.836914 -2.5
    endloop
  endfacet
  facet normal 0.0352995 -0.999377 0
    outer loop
      vertex 99.1143 0.96582 -2.5
      vertex 99.1143 0.96582 2.5
      vertex 95.4648 0.836914 2.5
    endloop
  endfacet
  facet normal 0.113368 -0.993553 0
    outer loop
      vertex 101.04 1.18555 -2.5
      vertex 99.1143 0.96582 2.5
      vertex 99.1143 0.96582 -2.5
    endloop
  endfacet
  facet normal 0.113368 -0.993553 0
    outer loop
      vertex 101.04 1.18555 -2.5
      vertex 101.04 1.18555 2.5
      vertex 99.1143 0.96582 2.5
    endloop
  endfacet
  facet normal 0.318587 -0.947894 0
    outer loop
      vertex 101.563 1.36133 -2.5
      vertex 101.04 1.18555 2.5
      vertex 101.04 1.18555 -2.5
    endloop
  endfacet
  facet normal 0.318587 -0.947894 0
    outer loop
      vertex 101.563 1.36133 -2.5
      vertex 101.563 1.36133 2.5
      vertex 101.04 1.18555 2.5
    endloop
  endfacet
  facet normal 0.346092 -0.938201 0
    outer loop
      vertex 101.698 1.41113 -2.5
      vertex 101.563 1.36133 2.5
      vertex 101.563 1.36133 -2.5
    endloop
  endfacet
  facet normal 0.346092 -0.938201 0
    outer loop
      vertex 101.698 1.41113 -2.5
      vertex 101.698 1.41113 2.5
      vertex 101.563 1.36133 2.5
    endloop
  endfacet
  facet normal 0.354047 -0.935228 0
    outer loop
      vertex 102.103 1.56445 -2.5
      vertex 101.698 1.41113 2.5
      vertex 101.698 1.41113 -2.5
    endloop
  endfacet
  facet normal 0.354047 -0.935228 0
    outer loop
      vertex 102.103 1.56445 -2.5
      vertex 102.103 1.56445 2.5
      vertex 101.698 1.41113 2.5
    endloop
  endfacet
  facet normal 0.420321 -0.907375 0
    outer loop
      vertex 102.512 1.75391 -2.5
      vertex 102.103 1.56445 2.5
      vertex 102.103 1.56445 -2.5
    endloop
  endfacet
  facet normal 0.420321 -0.907375 0
    outer loop
      vertex 102.512 1.75391 -2.5
      vertex 102.512 1.75391 2.5
      vertex 102.103 1.56445 2.5
    endloop
  endfacet
  facet normal 0.595157 -0.80361 0
    outer loop
      vertex 102.81 1.97461 -2.5
      vertex 102.512 1.75391 2.5
      vertex 102.512 1.75391 -2.5
    endloop
  endfacet
  facet normal 0.595157 -0.80361 0
    outer loop
      vertex 102.81 1.97461 -2.5
      vertex 102.81 1.97461 2.5
      vertex 102.512 1.75391 2.5
    endloop
  endfacet
  facet normal 0.818579 -0.574393 0
    outer loop
      vertex 103.019 2.27246 -2.5
      vertex 102.81 1.97461 2.5
      vertex 102.81 1.97461 -2.5
    endloop
  endfacet
  facet normal 0.818579 -0.574393 0
    outer loop
      vertex 103.019 2.27246 -2.5
      vertex 103.019 2.27246 2.5
      vertex 102.81 1.97461 2.5
    endloop
  endfacet
  facet normal 0.946389 -0.323031 0
    outer loop
      vertex 103.161 2.68848 -2.5
      vertex 103.019 2.27246 2.5
      vertex 103.019 2.27246 -2.5
    endloop
  endfacet
  facet normal 0.946389 -0.323031 0
    outer loop
      vertex 103.161 2.68848 -2.5
      vertex 103.161 2.68848 2.5
      vertex 103.019 2.27246 2.5
    endloop
  endfacet
  facet normal 0.98681 -0.161884 0
    outer loop
      vertex 103.256 3.26758 -2.5
      vertex 103.161 2.68848 2.5
      vertex 103.161 2.68848 -2.5
    endloop
  endfacet
  facet normal 0.98681 -0.161884 0
    outer loop
      vertex 103.256 3.26758 -2.5
      vertex 103.256 3.26758 2.5
      vertex 103.161 2.68848 2.5
    endloop
  endfacet
  facet normal 0.995822 -0.0913191 0
    outer loop
      vertex 103.328 4.05273 -2.5
      vertex 103.256 3.26758 2.5
      vertex 103.256 3.26758 -2.5
    endloop
  endfacet
  facet normal 0.995822 -0.0913191 0
    outer loop
      vertex 103.328 4.05273 -2.5
      vertex 103.328 4.05273 2.5
      vertex 103.256 3.26758 2.5
    endloop
  endfacet
  facet normal 0.99777 -0.0667448 0
    outer loop
      vertex 103.38 4.83008 -2.5
      vertex 103.328 4.05273 2.5
      vertex 103.328 4.05273 -2.5
    endloop
  endfacet
  facet normal 0.99777 -0.0667448 0
    outer loop
      vertex 103.38 4.83008 -2.5
      vertex 103.38 4.83008 2.5
      vertex 103.328 4.05273 2.5
    endloop
  endfacet
  facet normal 0.997833 -0.0657971 0
    outer loop
      vertex 103.397 5.08789 -2.5
      vertex 103.38 4.83008 2.5
      vertex 103.38 4.83008 -2.5
    endloop
  endfacet
  facet normal 0.997833 -0.0657971 0
    outer loop
      vertex 103.397 5.08789 -2.5
      vertex 103.397 5.08789 2.5
      vertex 103.38 4.83008 2.5
    endloop
  endfacet
  facet normal 0.997853 -0.0654918 0
    outer loop
      vertex 103.5 6.65723 -2.5
      vertex 103.397 5.08789 2.5
      vertex 103.397 5.08789 -2.5
    endloop
  endfacet
  facet normal 0.997853 -0.0654918 0
    outer loop
      vertex 103.5 6.65723 -2.5
      vertex 103.5 6.65723 2.5
      vertex 103.397 5.08789 2.5
    endloop
  endfacet
  facet normal 0.996706 0.081105 0
    outer loop
      vertex 103.113 11.4131 -2.5
      vertex 103.5 6.65723 2.5
      vertex 103.5 6.65723 -2.5
    endloop
  endfacet
  facet normal 0.996706 0.081105 -0
    outer loop
      vertex 103.113 11.4131 -2.5
      vertex 103.113 11.4131 2.5
      vertex 103.5 6.65723 2.5
    endloop
  endfacet
  facet normal 0.965345 0.260976 0
    outer loop
      vertex 101.45 17.5645 -2.5
      vertex 103.113 11.4131 2.5
      vertex 103.113 11.4131 -2.5
    endloop
  endfacet
  facet normal 0.965345 0.260976 -0
    outer loop
      vertex 101.45 17.5645 -2.5
      vertex 101.45 17.5645 2.5
      vertex 103.113 11.4131 2.5
    endloop
  endfacet
  facet normal 0.890002 0.455956 0
    outer loop
      vertex 98.4512 23.418 -2.5
      vertex 101.45 17.5645 2.5
      vertex 101.45 17.5645 -2.5
    endloop
  endfacet
  facet normal 0.890002 0.455956 -0
    outer loop
      vertex 98.4512 23.418 -2.5
      vertex 98.4512 23.418 2.5
      vertex 101.45 17.5645 2.5
    endloop
  endfacet
  facet normal 0.803628 0.595132 0
    outer loop
      vertex 95.3516 27.6035 -2.5
      vertex 98.4512 23.418 2.5
      vertex 98.4512 23.418 -2.5
    endloop
  endfacet
  facet normal 0.803628 0.595132 -0
    outer loop
      vertex 95.3516 27.6035 -2.5
      vertex 95.3516 27.6035 2.5
      vertex 98.4512 23.418 2.5
    endloop
  endfacet
  facet normal 0.72613 0.687558 0
    outer loop
      vertex 94.168 28.8535 -2.5
      vertex 95.3516 27.6035 2.5
      vertex 95.3516 27.6035 -2.5
    endloop
  endfacet
  facet normal 0.72613 0.687558 -0
    outer loop
      vertex 94.168 28.8535 -2.5
      vertex 94.168 28.8535 2.5
      vertex 95.3516 27.6035 2.5
    endloop
  endfacet
  facet normal 0.727811 0.685777 0
    outer loop
      vertex 93.0537 30.0361 -2.5
      vertex 94.168 28.8535 2.5
      vertex 94.168 28.8535 -2.5
    endloop
  endfacet
  facet normal 0.727811 0.685777 -0
    outer loop
      vertex 93.0537 30.0361 -2.5
      vertex 93.0537 30.0361 2.5
      vertex 94.168 28.8535 2.5
    endloop
  endfacet
  facet normal 0.653585 0.756853 0
    outer loop
      vertex 89.3467 33.2373 -2.5
      vertex 93.0537 30.0361 2.5
      vertex 93.0537 30.0361 -2.5
    endloop
  endfacet
  facet normal 0.653585 0.756853 -0
    outer loop
      vertex 89.3467 33.2373 -2.5
      vertex 89.3467 33.2373 2.5
      vertex 93.0537 30.0361 2.5
    endloop
  endfacet
  facet normal 0.575734 0.817637 0
    outer loop
      vertex 83.3262 37.4766 -2.5
      vertex 89.3467 33.2373 2.5
      vertex 89.3467 33.2373 -2.5
    endloop
  endfacet
  facet normal 0.575734 0.817637 -0
    outer loop
      vertex 83.3262 37.4766 -2.5
      vertex 83.3262 37.4766 2.5
      vertex 89.3467 33.2373 2.5
    endloop
  endfacet
  facet normal 0.49344 0.86978 0
    outer loop
      vertex 76.2617 41.4844 -2.5
      vertex 83.3262 37.4766 2.5
      vertex 83.3262 37.4766 -2.5
    endloop
  endfacet
  facet normal 0.49344 0.86978 -0
    outer loop
      vertex 76.2617 41.4844 -2.5
      vertex 76.2617 41.4844 2.5
      vertex 83.3262 37.4766 2.5
    endloop
  endfacet
  facet normal 0.431756 0.901991 0
    outer loop
      vertex 70.3311 44.3232 -2.5
      vertex 76.2617 41.4844 2.5
      vertex 76.2617 41.4844 -2.5
    endloop
  endfacet
  facet normal 0.431756 0.901991 -0
    outer loop
      vertex 70.3311 44.3232 -2.5
      vertex 70.3311 44.3232 2.5
      vertex 76.2617 41.4844 2.5
    endloop
  endfacet
  facet normal 0.386225 0.922405 0
    outer loop
      vertex 68.3135 45.168 -2.5
      vertex 70.3311 44.3232 2.5
      vertex 70.3311 44.3232 -2.5
    endloop
  endfacet
  facet normal 0.386225 0.922405 -0
    outer loop
      vertex 68.3135 45.168 -2.5
      vertex 68.3135 45.168 2.5
      vertex 70.3311 44.3232 2.5
    endloop
  endfacet
  facet normal 0.378325 0.925673 0
    outer loop
      vertex 65.0664 46.4951 -2.5
      vertex 68.3135 45.168 2.5
      vertex 68.3135 45.168 -2.5
    endloop
  endfacet
  facet normal 0.378325 0.925673 -0
    outer loop
      vertex 65.0664 46.4951 -2.5
      vertex 65.0664 46.4951 2.5
      vertex 68.3135 45.168 2.5
    endloop
  endfacet
  facet normal 0.999996 0.00295757 0
    outer loop
      vertex 65.0391 55.7256 -2.5
      vertex 65.0664 46.4951 2.5
      vertex 65.0664 46.4951 -2.5
    endloop
  endfacet
  facet normal 0.999996 0.00295757 -0
    outer loop
      vertex 65.0391 55.7256 -2.5
      vertex 65.0391 55.7256 2.5
      vertex 65.0664 46.4951 2.5
    endloop
  endfacet
  facet normal 1 0 0
    outer loop
      vertex 65.0391 56.9736 -2.5
      vertex 65.0391 55.7256 2.5
      vertex 65.0391 55.7256 -2.5
    endloop
  endfacet
  facet normal 1 0 -0
    outer loop
      vertex 65.0391 56.9736 -2.5
      vertex 65.0391 56.9736 2.5
      vertex 65.0391 55.7256 2.5
    endloop
  endfacet
  facet normal 0.999984 0.00574059 0
    outer loop
      vertex 65.0176 60.7188 -2.5
      vertex 65.0391 56.9736 2.5
      vertex 65.0391 56.9736 -2.5
    endloop
  endfacet
  facet normal 0.999984 0.00574059 -0
    outer loop
      vertex 65.0176 60.7188 -2.5
      vertex 65.0176 60.7188 2.5
      vertex 65.0391 56.9736 2.5
    endloop
  endfacet
  facet normal 0.999619 0.0275922 0
    outer loop
      vertex 64.9287 63.9395 -2.5
      vertex 65.0176 60.7188 2.5
      vertex 65.0176 60.7188 -2.5
    endloop
  endfacet
  facet normal 0.999619 0.0275922 -0
    outer loop
      vertex 64.9287 63.9395 -2.5
      vertex 64.9287 63.9395 2.5
      vertex 65.0176 60.7188 2.5
    endloop
  endfacet
  facet normal 0.996429 0.0844318 0
    outer loop
      vertex 64.7402 66.1641 -2.5
      vertex 64.9287 63.9395 2.5
      vertex 64.9287 63.9395 -2.5
    endloop
  endfacet
  facet normal 0.996429 0.0844318 -0
    outer loop
      vertex 64.7402 66.1641 -2.5
      vertex 64.7402 66.1641 2.5
      vertex 64.9287 63.9395 2.5
    endloop
  endfacet
  facet normal 0.988541 0.150954 0
    outer loop
      vertex 64.5098 67.6729 -2.5
      vertex 64.7402 66.1641 2.5
      vertex 64.7402 66.1641 -2.5
    endloop
  endfacet
  facet normal 0.988541 0.150954 -0
    outer loop
      vertex 64.5098 67.6729 -2.5
      vertex 64.5098 67.6729 2.5
      vertex 64.7402 66.1641 2.5
    endloop
  endfacet
  facet normal 0.983496 0.180932 0
    outer loop
      vertex 64.418 68.1719 -2.5
      vertex 64.5098 67.6729 2.5
      vertex 64.5098 67.6729 -2.5
    endloop
  endfacet
  facet normal 0.983496 0.180932 -0
    outer loop
      vertex 64.418 68.1719 -2.5
      vertex 64.418 68.1719 2.5
      vertex 64.5098 67.6729 2.5
    endloop
  endfacet
  facet normal 0.983215 0.182448 0
    outer loop
      vertex 64.1797 69.4561 -2.5
      vertex 64.418 68.1719 2.5
      vertex 64.418 68.1719 -2.5
    endloop
  endfacet
  facet normal 0.983215 0.182448 -0
    outer loop
      vertex 64.1797 69.4561 -2.5
      vertex 64.1797 69.4561 2.5
      vertex 64.418 68.1719 2.5
    endloop
  endfacet
  facet normal 0.966375 0.257137 0
    outer loop
      vertex 63.1689 73.2549 -2.5
      vertex 64.1797 69.4561 2.5
      vertex 64.1797 69.4561 -2.5
    endloop
  endfacet
  facet normal 0.966375 0.257137 -0
    outer loop
      vertex 63.1689 73.2549 -2.5
      vertex 63.1689 73.2549 2.5
      vertex 64.1797 69.4561 2.5
    endloop
  endfacet
  facet normal 0.920756 0.390139 0
    outer loop
      vertex 61.5059 77.1797 -2.5
      vertex 63.1689 73.2549 2.5
      vertex 63.1689 73.2549 -2.5
    endloop
  endfacet
  facet normal 0.920756 0.390139 -0
    outer loop
      vertex 61.5059 77.1797 -2.5
      vertex 61.5059 77.1797 2.5
      vertex 63.1689 73.2549 2.5
    endloop
  endfacet
  facet normal 0.802667 0.596427 0
    outer loop
      vertex 59.3711 80.0527 -2.5
      vertex 61.5059 77.1797 2.5
      vertex 61.5059 77.1797 -2.5
    endloop
  endfacet
  facet normal 0.802667 0.596427 -0
    outer loop
      vertex 59.3711 80.0527 -2.5
      vertex 59.3711 80.0527 2.5
      vertex 61.5059 77.1797 2.5
    endloop
  endfacet
  facet normal 0.626582 0.779356 0
    outer loop
      vertex 57.4336 81.6104 -2.5
      vertex 59.3711 80.0527 2.5
      vertex 59.3711 80.0527 -2.5
    endloop
  endfacet
  facet normal 0.626582 0.779356 -0
    outer loop
      vertex 57.4336 81.6104 -2.5
      vertex 57.4336 81.6104 2.5
      vertex 59.3711 80.0527 2.5
    endloop
  endfacet
  facet normal 0.449539 0.893261 0
    outer loop
      vertex 56.7119 81.9736 -2.5
      vertex 57.4336 81.6104 2.5
      vertex 57.4336 81.6104 -2.5
    endloop
  endfacet
  facet normal 0.449539 0.893261 -0
    outer loop
      vertex 56.7119 81.9736 -2.5
      vertex 56.7119 81.9736 2.5
      vertex 57.4336 81.6104 2.5
    endloop
  endfacet
  facet normal 0.448756 0.893655 0
    outer loop
      vertex 56.457 82.1016 -2.5
      vertex 56.7119 81.9736 2.5
      vertex 56.7119 81.9736 -2.5
    endloop
  endfacet
  facet normal 0.448756 0.893655 -0
    outer loop
      vertex 56.457 82.1016 -2.5
      vertex 56.457 82.1016 2.5
      vertex 56.7119 81.9736 2.5
    endloop
  endfacet
  facet normal 0.402441 0.915446 0
    outer loop
      vertex 55.6729 82.4463 -2.5
      vertex 56.457 82.1016 2.5
      vertex 56.457 82.1016 -2.5
    endloop
  endfacet
  facet normal 0.402441 0.915446 -0
    outer loop
      vertex 55.6729 82.4463 -2.5
      vertex 55.6729 82.4463 2.5
      vertex 56.457 82.1016 2.5
    endloop
  endfacet
  facet normal 0.302439 0.953169 0
    outer loop
      vertex 54.6543 82.7695 -2.5
      vertex 55.6729 82.4463 2.5
      vertex 55.6729 82.4463 -2.5
    endloop
  endfacet
  facet normal 0.302439 0.953169 -0
    outer loop
      vertex 54.6543 82.7695 -2.5
      vertex 54.6543 82.7695 2.5
      vertex 55.6729 82.4463 2.5
    endloop
  endfacet
  facet normal 0.183792 0.982965 0
    outer loop
      vertex 53.3643 83.0107 -2.5
      vertex 54.6543 82.7695 2.5
      vertex 54.6543 82.7695 -2.5
    endloop
  endfacet
  facet normal 0.183792 0.982965 -0
    outer loop
      vertex 53.3643 83.0107 -2.5
      vertex 53.3643 83.0107 2.5
      vertex 54.6543 82.7695 2.5
    endloop
  endfacet
  facet normal 0.130095 0.991502 0
    outer loop
      vertex 51.9795 83.1924 -2.5
      vertex 53.3643 83.0107 2.5
      vertex 53.3643 83.0107 -2.5
    endloop
  endfacet
  facet normal 0.130095 0.991502 -0
    outer loop
      vertex 51.9795 83.1924 -2.5
      vertex 51.9795 83.1924 2.5
      vertex 53.3643 83.0107 2.5
    endloop
  endfacet
  facet normal 0.111234 0.993794 0
    outer loop
      vertex 51.5176 83.2441 -2.5
      vertex 51.9795 83.1924 2.5
      vertex 51.9795 83.1924 -2.5
    endloop
  endfacet
  facet normal 0.111234 0.993794 -0
    outer loop
      vertex 51.5176 83.2441 -2.5
      vertex 51.5176 83.2441 2.5
      vertex 51.9795 83.1924 2.5
    endloop
  endfacet
  facet normal 0.138458 0.990368 0
    outer loop
      vertex 51.4053 83.2598 -2.5
      vertex 51.5176 83.2441 2.5
      vertex 51.5176 83.2441 -2.5
    endloop
  endfacet
  facet normal 0.138458 0.990368 -0
    outer loop
      vertex 51.4053 83.2598 -2.5
      vertex 51.4053 83.2598 2.5
      vertex 51.5176 83.2441 2.5
    endloop
  endfacet
  facet normal -0.0363969 0.999337 0
    outer loop
      vertex 51.0566 83.2471 -2.5
      vertex 51.4053 83.2598 2.5
      vertex 51.4053 83.2598 -2.5
    endloop
  endfacet
  facet normal -0.0363969 0.999337 0
    outer loop
      vertex 51.0566 83.2471 -2.5
      vertex 51.0566 83.2471 2.5
      vertex 51.4053 83.2598 2.5
    endloop
  endfacet
  facet normal -0.110482 0.993878 0
    outer loop
      vertex 50.4062 83.1748 -2.5
      vertex 51.0566 83.2471 2.5
      vertex 51.0566 83.2471 -2.5
    endloop
  endfacet
  facet normal -0.110482 0.993878 0
    outer loop
      vertex 50.4062 83.1748 -2.5
      vertex 50.4062 83.1748 2.5
      vertex 51.0566 83.2471 2.5
    endloop
  endfacet
  facet normal -0.178043 0.984023 0
    outer loop
      vertex 49.6562 83.0391 -2.5
      vertex 50.4062 83.1748 2.5
      vertex 50.4062 83.1748 -2.5
    endloop
  endfacet
  facet normal -0.178043 0.984023 0
    outer loop
      vertex 49.6562 83.0391 -2.5
      vertex 49.6562 83.0391 2.5
      vertex 50.4062 83.1748 2.5
    endloop
  endfacet
  facet normal -0.231758 0.972773 0
    outer loop
      vertex 49.082 82.9023 -2.5
      vertex 49.6562 83.0391 2.5
      vertex 49.6562 83.0391 -2.5
    endloop
  endfacet
  facet normal -0.231758 0.972773 0
    outer loop
      vertex 49.082 82.9023 -2.5
      vertex 49.082 82.9023 2.5
      vertex 49.6562 83.0391 2.5
    endloop
  endfacet
  facet normal -0.270582 0.962697 0
    outer loop
      vertex 48.8945 82.8496 -2.5
      vertex 49.082 82.9023 2.5
      vertex 49.082 82.9023 -2.5
    endloop
  endfacet
  facet normal -0.270582 0.962697 0
    outer loop
      vertex 48.8945 82.8496 -2.5
      vertex 48.8945 82.8496 2.5
      vertex 49.082 82.9023 2.5
    endloop
  endfacet
  facet normal -0.264213 0.964464 0
    outer loop
      vertex 47.8965 82.5762 -2.5
      vertex 48.8945 82.8496 2.5
      vertex 48.8945 82.8496 -2.5
    endloop
  endfacet
  facet normal -0.264213 0.964464 0
    outer loop
      vertex 47.8965 82.5762 -2.5
      vertex 47.8965 82.5762 2.5
      vertex 48.8945 82.8496 2.5
    endloop
  endfacet
  facet normal -0.497127 0.867678 0
    outer loop
      vertex 45.1182 80.9844 -2.5
      vertex 47.8965 82.5762 2.5
      vertex 47.8965 82.5762 -2.5
    endloop
  endfacet
  facet normal -0.497127 0.867678 0
    outer loop
      vertex 45.1182 80.9844 -2.5
      vertex 45.1182 80.9844 2.5
      vertex 47.8965 82.5762 2.5
    endloop
  endfacet
  facet normal -0.7556 0.655033 0
    outer loop
      vertex 42.2178 77.6387 -2.5
      vertex 45.1182 80.9844 2.5
      vertex 45.1182 80.9844 -2.5
    endloop
  endfacet
  facet normal -0.7556 0.655033 0
    outer loop
      vertex 42.2178 77.6387 -2.5
      vertex 42.2178 77.6387 2.5
      vertex 45.1182 80.9844 2.5
    endloop
  endfacet
  facet normal -0.92038 0.391024 0
    outer loop
      vertex 40.1201 72.7012 -2.5
      vertex 42.2178 77.6387 2.5
      vertex 42.2178 77.6387 -2.5
    endloop
  endfacet
  facet normal -0.92038 0.391024 0
    outer loop
      vertex 40.1201 72.7012 -2.5
      vertex 40.1201 72.7012 2.5
      vertex 42.2178 77.6387 2.5
    endloop
  endfacet
  facet normal -0.97495 0.222423 0
    outer loop
      vertex 38.9863 67.7314 -2.5
      vertex 40.1201 72.7012 2.5
      vertex 40.1201 72.7012 -2.5
    endloop
  endfacet
  facet normal -0.97495 0.222423 0
    outer loop
      vertex 38.9863 67.7314 -2.5
      vertex 38.9863 67.7314 2.5
      vertex 40.1201 72.7012 2.5
    endloop
  endfacet
  facet normal -0.990999 0.133871 0
    outer loop
      vertex 38.7598 66.0547 -2.5
      vertex 38.9863 67.7314 2.5
      vertex 38.9863 67.7314 -2.5
    endloop
  endfacet
  facet normal -0.990999 0.133871 0
    outer loop
      vertex 38.7598 66.0547 -2.5
      vertex 38.7598 66.0547 2.5
      vertex 38.9863 67.7314 2.5
    endloop
  endfacet
  facet normal -0.991506 0.130061 0
    outer loop
      vertex 38.7051 65.6377 -2.5
      vertex 38.7598 66.0547 2.5
      vertex 38.7598 66.0547 -2.5
    endloop
  endfacet
  facet normal -0.991506 0.130061 0
    outer loop
      vertex 38.7051 65.6377 -2.5
      vertex 38.7051 65.6377 2.5
      vertex 38.7598 66.0547 2.5
    endloop
  endfacet
  facet normal -0.996846 0.0793564 0
    outer loop
      vertex 38.6045 64.374 -2.5
      vertex 38.7051 65.6377 2.5
      vertex 38.7051 65.6377 -2.5
    endloop
  endfacet
  facet normal -0.996846 0.0793564 0
    outer loop
      vertex 38.6045 64.374 -2.5
      vertex 38.6045 64.374 2.5
      vertex 38.7051 65.6377 2.5
    endloop
  endfacet
  facet normal -0.998495 0.0548363 0
    outer loop
      vertex 38.4775 62.0615 -2.5
      vertex 38.6045 64.374 2.5
      vertex 38.6045 64.374 -2.5
    endloop
  endfacet
  facet normal -0.998495 0.0548363 0
    outer loop
      vertex 38.4775 62.0615 -2.5
      vertex 38.4775 62.0615 2.5
      vertex 38.6045 64.374 2.5
    endloop
  endfacet
  facet normal -0.999405 0.034494 0
    outer loop
      vertex 38.3838 59.3467 -2.5
      vertex 38.4775 62.0615 2.5
      vertex 38.4775 62.0615 -2.5
    endloop
  endfacet
  facet normal -0.999405 0.034494 0
    outer loop
      vertex 38.3838 59.3467 -2.5
      vertex 38.3838 59.3467 2.5
      vertex 38.4775 62.0615 2.5
    endloop
  endfacet
  facet normal -0.999802 0.0199158 0
    outer loop
      vertex 38.3262 56.4551 -2.5
      vertex 38.3838 59.3467 2.5
      vertex 38.3838 59.3467 -2.5
    endloop
  endfacet
  facet normal -0.999802 0.0199158 0
    outer loop
      vertex 38.3262 56.4551 -2.5
      vertex 38.3262 56.4551 2.5
      vertex 38.3838 59.3467 2.5
    endloop
  endfacet
  facet normal -0.999976 0.00690392 0
    outer loop
      vertex 38.3066 53.6162 -2.5
      vertex 38.3262 56.4551 2.5
      vertex 38.3262 56.4551 -2.5
    endloop
  endfacet
  facet normal -0.999976 0.00690392 0
    outer loop
      vertex 38.3066 53.6162 -2.5
      vertex 38.3066 53.6162 2.5
      vertex 38.3262 56.4551 2.5
    endloop
  endfacet
  facet normal -0.999968 -0.00800881 0
    outer loop
      vertex 38.3271 51.0566 -2.5
      vertex 38.3066 53.6162 2.5
      vertex 38.3066 53.6162 -2.5
    endloop
  endfacet
  facet normal -0.999968 -0.00800881 0
    outer loop
      vertex 38.3271 51.0566 -2.5
      vertex 38.3271 51.0566 2.5
      vertex 38.3066 53.6162 2.5
    endloop
  endfacet
  facet normal -0.999477 -0.0323495 0
    outer loop
      vertex 38.3936 49.002 -2.5
      vertex 38.3271 51.0566 2.5
      vertex 38.3271 51.0566 -2.5
    endloop
  endfacet
  facet normal -0.999477 -0.0323495 0
    outer loop
      vertex 38.3936 49.002 -2.5
      vertex 38.3936 49.002 2.5
      vertex 38.3271 51.0566 2.5
    endloop
  endfacet
  facet normal -0.998034 -0.062678 0
    outer loop
      vertex 38.4561 48.0068 -2.5
      vertex 38.3936 49.002 2.5
      vertex 38.3936 49.002 -2.5
    endloop
  endfacet
  facet normal -0.998034 -0.062678 0
    outer loop
      vertex 38.4561 48.0068 -2.5
      vertex 38.4561 48.0068 2.5
      vertex 38.3936 49.002 2.5
    endloop
  endfacet
  facet normal -0.9882 -0.153169 0
    outer loop
      vertex 38.5068 47.6797 -2.5
      vertex 38.4561 48.0068 2.5
      vertex 38.4561 48.0068 -2.5
    endloop
  endfacet
  facet normal -0.9882 -0.153169 0
    outer loop
      vertex 38.5068 47.6797 -2.5
      vertex 38.5068 47.6797 2.5
      vertex 38.4561 48.0068 2.5
    endloop
  endfacet
  facet normal -0.988415 -0.151774 0
    outer loop
      vertex 38.6758 46.5791 -2.5
      vertex 38.5068 47.6797 2.5
      vertex 38.5068 47.6797 -2.5
    endloop
  endfacet
  facet normal -0.988415 -0.151774 0
    outer loop
      vertex 38.6758 46.5791 -2.5
      vertex 38.6758 46.5791 2.5
      vertex 38.5068 47.6797 2.5
    endloop
  endfacet
  facet normal -0.384503 0.923124 0
    outer loop
      vertex 34.9502 45.0273 -2.5
      vertex 38.6758 46.5791 2.5
      vertex 38.6758 46.5791 -2.5
    endloop
  endfacet
  facet normal -0.384503 0.923124 0
    outer loop
      vertex 34.9502 45.0273 -2.5
      vertex 34.9502 45.0273 2.5
      vertex 38.6758 46.5791 2.5
    endloop
  endfacet
  facet normal -0.380712 0.924694 0
    outer loop
      vertex 32.5879 44.0547 -2.5
      vertex 34.9502 45.0273 2.5
      vertex 34.9502 45.0273 -2.5
    endloop
  endfacet
  facet normal -0.380712 0.924694 0
    outer loop
      vertex 32.5879 44.0547 -2.5
      vertex 32.5879 44.0547 2.5
      vertex 34.9502 45.0273 2.5
    endloop
  endfacet
  facet normal -0.437724 0.899109 0
    outer loop
      vertex 25.6836 40.6934 -2.5
      vertex 32.5879 44.0547 2.5
      vertex 32.5879 44.0547 -2.5
    endloop
  endfacet
  facet normal -0.437724 0.899109 0
    outer loop
      vertex 25.6836 40.6934 -2.5
      vertex 25.6836 40.6934 2.5
      vertex 32.5879 44.0547 2.5
    endloop
  endfacet
  facet normal -0.516625 0.856212 0
    outer loop
      vertex 17.7109 35.8828 -2.5
      vertex 25.6836 40.6934 2.5
      vertex 25.6836 40.6934 -2.5
    endloop
  endfacet
  facet normal -0.516625 0.856212 0
    outer loop
      vertex 17.7109 35.8828 -2.5
      vertex 17.7109 35.8828 2.5
      vertex 25.6836 40.6934 2.5
    endloop
  endfacet
  facet normal -0.621455 0.78345 0
    outer loop
      vertex 11.165 30.6904 -2.5
      vertex 17.7109 35.8828 2.5
      vertex 17.7109 35.8828 -2.5
    endloop
  endfacet
  facet normal -0.621455 0.78345 0
    outer loop
      vertex 11.165 30.6904 -2.5
      vertex 11.165 30.6904 2.5
      vertex 17.7109 35.8828 2.5
    endloop
  endfacet
  facet normal -0.717631 0.696423 0
    outer loop
      vertex 7.28418 26.6914 -2.5
      vertex 11.165 30.6904 2.5
      vertex 11.165 30.6904 -2.5
    endloop
  endfacet
  facet normal -0.717631 0.696423 0
    outer loop
      vertex 7.28418 26.6914 -2.5
      vertex 7.28418 26.6914 2.5
      vertex 11.165 30.6904 2.5
    endloop
  endfacet
  facet normal -0.803169 0.595752 0
    outer loop
      vertex 6.1875 25.2129 -2.5
      vertex 7.28418 26.6914 2.5
      vertex 7.28418 26.6914 -2.5
    endloop
  endfacet
  facet normal -0.803169 0.595752 0
    outer loop
      vertex 6.1875 25.2129 -2.5
      vertex 6.1875 25.2129 2.5
      vertex 7.28418 26.6914 2.5
    endloop
  endfacet
  facet normal -0.803399 0.595441 0
    outer loop
      vertex 5.3457 24.0771 -2.5
      vertex 6.1875 25.2129 2.5
      vertex 6.1875 25.2129 -2.5
    endloop
  endfacet
  facet normal -0.803399 0.595441 0
    outer loop
      vertex 5.3457 24.0771 -2.5
      vertex 5.3457 24.0771 2.5
      vertex 6.1875 25.2129 2.5
    endloop
  endfacet
  facet normal -0.870063 0.49294 0
    outer loop
      vertex 3.23828 20.3574 -2.5
      vertex 5.3457 24.0771 2.5
      vertex 5.3457 24.0771 -2.5
    endloop
  endfacet
  facet normal -0.870063 0.49294 0
    outer loop
      vertex 3.23828 20.3574 -2.5
      vertex 3.23828 20.3574 2.5
      vertex 5.3457 24.0771 2.5
    endloop
  endfacet
  facet normal -0.933464 0.358671 0
    outer loop
      vertex 1.20605 15.0684 -2.5
      vertex 3.23828 20.3574 2.5
      vertex 3.23828 20.3574 -2.5
    endloop
  endfacet
  facet normal -0.933464 0.358671 0
    outer loop
      vertex 1.20605 15.0684 -2.5
      vertex 1.20605 15.0684 2.5
      vertex 3.23828 20.3574 2.5
    endloop
  endfacet
  facet normal -0.982038 0.188684 0
    outer loop
      vertex 0.146484 9.55371 -2.5
      vertex 1.20605 15.0684 2.5
      vertex 1.20605 15.0684 -2.5
    endloop
  endfacet
  facet normal -0.982038 0.188684 0
    outer loop
      vertex 0.146484 9.55371 -2.5
      vertex 0.146484 9.55371 2.5
      vertex 1.20605 15.0684 2.5
    endloop
  endfacet
  facet normal -0.999315 0.0370029 0
    outer loop
      vertex -0.0078125 5.38672 -2.5
      vertex 0.146484 9.55371 2.5
      vertex 0.146484 9.55371 -2.5
    endloop
  endfacet
  facet normal -0.999315 0.0370029 0
    outer loop
      vertex -0.0078125 5.38672 -2.5
      vertex -0.0078125 5.38672 2.5
      vertex 0.146484 9.55371 2.5
    endloop
  endfacet
  facet normal -0.995681 -0.0928357 0
    outer loop
      vertex 0.120117 4.01465 -2.5
      vertex -0.0078125 5.38672 2.5
      vertex -0.0078125 5.38672 -2.5
    endloop
  endfacet
  facet normal -0.995681 -0.0928357 0
    outer loop
      vertex 0.120117 4.01465 -2.5
      vertex 0.120117 4.01465 2.5
      vertex -0.0078125 5.38672 2.5
    endloop
  endfacet
  facet normal -0.994704 -0.102777 0
    outer loop
      vertex 0.344727 1.84082 -2.5
      vertex 0.120117 4.01465 2.5
      vertex 0.120117 4.01465 -2.5
    endloop
  endfacet
  facet normal -0.994704 -0.102777 0
    outer loop
      vertex 0.344727 1.84082 -2.5
      vertex 0.344727 1.84082 2.5
      vertex 0.120117 4.01465 2.5
    endloop
  endfacet
  facet normal -0.290055 -0.95701 0
    outer loop
      vertex 1.92676 1.36133 -2.5
      vertex 0.344727 1.84082 2.5
      vertex 0.344727 1.84082 -2.5
    endloop
  endfacet
  facet normal -0.290055 -0.95701 0
    outer loop
      vertex 1.92676 1.36133 -2.5
      vertex 1.92676 1.36133 2.5
      vertex 0.344727 1.84082 2.5
    endloop
  endfacet
  facet normal -0.304531 -0.952503 0
    outer loop
      vertex 2.47656 1.18555 -2.5
      vertex 1.92676 1.36133 2.5
      vertex 1.92676 1.36133 -2.5
    endloop
  endfacet
  facet normal -0.304531 -0.952503 0
    outer loop
      vertex 2.47656 1.18555 -2.5
      vertex 2.47656 1.18555 2.5
      vertex 1.92676 1.36133 2.5
    endloop
  endfacet
  facet normal -0.109025 -0.994039 0
    outer loop
      vertex 4.44434 0.969727 -2.5
      vertex 2.47656 1.18555 2.5
      vertex 2.47656 1.18555 -2.5
    endloop
  endfacet
  facet normal -0.109025 -0.994039 0
    outer loop
      vertex 4.44434 0.969727 -2.5
      vertex 4.44434 0.969727 2.5
      vertex 2.47656 1.18555 2.5
    endloop
  endfacet
  facet normal -0.0331473 -0.99945 0
    outer loop
      vertex 8.125 0.847656 -2.5
      vertex 4.44434 0.969727 2.5
      vertex 4.44434 0.969727 -2.5
    endloop
  endfacet
  facet normal -0.0331473 -0.99945 0
    outer loop
      vertex 8.125 0.847656 -2.5
      vertex 8.125 0.847656 2.5
      vertex 4.44434 0.969727 2.5
    endloop
  endfacet
  facet normal 0.0355434 -0.999368 0
    outer loop
      vertex 12.1064 0.989258 -2.5
      vertex 8.125 0.847656 2.5
      vertex 8.125 0.847656 -2.5
    endloop
  endfacet
  facet normal 0.0355434 -0.999368 0
    outer loop
      vertex 12.1064 0.989258 -2.5
      vertex 12.1064 0.989258 2.5
      vertex 8.125 0.847656 2.5
    endloop
  endfacet
  facet normal 0.094648 -0.995511 0
    outer loop
      vertex 14.6846 1.23438 -2.5
      vertex 12.1064 0.989258 2.5
      vertex 12.1064 0.989258 -2.5
    endloop
  endfacet
  facet normal 0.094648 -0.995511 0
    outer loop
      vertex 14.6846 1.23438 -2.5
      vertex 14.6846 1.23438 2.5
      vertex 12.1064 0.989258 2.5
    endloop
  endfacet
  facet normal 0.181672 -0.983359 0
    outer loop
      vertex 15.5303 1.39062 -2.5
      vertex 14.6846 1.23438 2.5
      vertex 14.6846 1.23438 -2.5
    endloop
  endfacet
  facet normal 0.181672 -0.983359 0
    outer loop
      vertex 15.5303 1.39062 -2.5
      vertex 15.5303 1.39062 2.5
      vertex 14.6846 1.23438 2.5
    endloop
  endfacet
  facet normal 0.181587 -0.983375 0
    outer loop
      vertex 16.4082 1.55273 -2.5
      vertex 15.5303 1.39062 2.5
      vertex 15.5303 1.39062 -2.5
    endloop
  endfacet
  facet normal 0.181587 -0.983375 0
    outer loop
      vertex 16.4082 1.55273 -2.5
      vertex 16.4082 1.55273 2.5
      vertex 15.5303 1.39062 2.5
    endloop
  endfacet
  facet normal 0.207095 -0.978321 0
    outer loop
      vertex 19.0332 2.1084 -2.5
      vertex 16.4082 1.55273 2.5
      vertex 16.4082 1.55273 -2.5
    endloop
  endfacet
  facet normal 0.207095 -0.978321 0
    outer loop
      vertex 19.0332 2.1084 -2.5
      vertex 19.0332 2.1084 2.5
      vertex 16.4082 1.55273 2.5
    endloop
  endfacet
  facet normal 0.231288 -0.972885 0
    outer loop
      vertex 23.1533 3.08789 -2.5
      vertex 19.0332 2.1084 2.5
      vertex 19.0332 2.1084 -2.5
    endloop
  endfacet
  facet normal 0.231288 -0.972885 0
    outer loop
      vertex 23.1533 3.08789 -2.5
      vertex 23.1533 3.08789 2.5
      vertex 19.0332 2.1084 2.5
    endloop
  endfacet
  facet normal 0.253622 -0.967303 0
    outer loop
      vertex 27.958 4.34766 -2.5
      vertex 23.1533 3.08789 2.5
      vertex 23.1533 3.08789 -2.5
    endloop
  endfacet
  facet normal 0.253622 -0.967303 0
    outer loop
      vertex 27.958 4.34766 -2.5
      vertex 27.958 4.34766 2.5
      vertex 23.1533 3.08789 2.5
    endloop
  endfacet
  facet normal 0.268213 -0.96336 0
    outer loop
      vertex 32.125 5.50781 -2.5
      vertex 27.958 4.34766 2.5
      vertex 27.958 4.34766 -2.5
    endloop
  endfacet
  facet normal 0.268213 -0.96336 0
    outer loop
      vertex 32.125 5.50781 -2.5
      vertex 32.125 5.50781 2.5
      vertex 27.958 4.34766 2.5
    endloop
  endfacet
  facet normal 0.27634 -0.96106 0
    outer loop
      vertex 33.5107 5.90625 -2.5
      vertex 32.125 5.50781 2.5
      vertex 32.125 5.50781 -2.5
    endloop
  endfacet
  facet normal 0.27634 -0.96106 0
    outer loop
      vertex 33.5107 5.90625 -2.5
      vertex 33.5107 5.90625 2.5
      vertex 32.125 5.50781 2.5
    endloop
  endfacet
  facet normal 0.277431 -0.960746 0
    outer loop
      vertex 34.2344 6.11523 -2.5
      vertex 33.5107 5.90625 2.5
      vertex 33.5107 5.90625 -2.5
    endloop
  endfacet
  facet normal 0.277431 -0.960746 0
    outer loop
      vertex 34.2344 6.11523 -2.5
      vertex 34.2344 6.11523 2.5
      vertex 33.5107 5.90625 2.5
    endloop
  endfacet
  facet normal 0.277752 -0.960653 0
    outer loop
      vertex 36.4062 6.74316 -2.5
      vertex 34.2344 6.11523 2.5
      vertex 34.2344 6.11523 -2.5
    endloop
  endfacet
  facet normal 0.277752 -0.960653 0
    outer loop
      vertex 36.4062 6.74316 -2.5
      vertex 36.4062 6.74316 2.5
      vertex 34.2344 6.11523 2.5
    endloop
  endfacet
  facet normal 0.274353 -0.961629 0
    outer loop
      vertex 38.792 7.42383 -2.5
      vertex 36.4062 6.74316 2.5
      vertex 36.4062 6.74316 -2.5
    endloop
  endfacet
  facet normal 0.274353 -0.961629 0
    outer loop
      vertex 38.792 7.42383 -2.5
      vertex 38.792 7.42383 2.5
      vertex 36.4062 6.74316 2.5
    endloop
  endfacet
  facet normal 0.272058 -0.962281 0
    outer loop
      vertex 40.4189 7.88379 -2.5
      vertex 38.792 7.42383 2.5
      vertex 38.792 7.42383 -2.5
    endloop
  endfacet
  facet normal 0.272058 -0.962281 0
    outer loop
      vertex 40.4189 7.88379 -2.5
      vertex 40.4189 7.88379 2.5
      vertex 38.792 7.42383 2.5
    endloop
  endfacet
  facet normal 0.336664 -0.941625 0
    outer loop
      vertex 40.8887 8.05176 -2.5
      vertex 40.4189 7.88379 2.5
      vertex 40.4189 7.88379 -2.5
    endloop
  endfacet
  facet normal 0.336664 -0.941625 0
    outer loop
      vertex 40.8887 8.05176 -2.5
      vertex 40.8887 8.05176 2.5
      vertex 40.4189 7.88379 2.5
    endloop
  endfacet
  facet normal 0 -1 0
    outer loop
      vertex 41.0752 8.05176 -2.5
      vertex 40.8887 8.05176 2.5
      vertex 40.8887 8.05176 -2.5
    endloop
  endfacet
  facet normal 0 -1 0
    outer loop
      vertex 41.0752 8.05176 -2.5
      vertex 41.0752 8.05176 2.5
      vertex 40.8887 8.05176 2.5
    endloop
  endfacet
  facet normal -0.973527 -0.228573 0
    outer loop
      vertex 41.1621 7.68164 -2.5
      vertex 41.0752 8.05176 2.5
      vertex 41.0752 8.05176 -2.5
    endloop
  endfacet
  facet normal -0.973527 -0.228573 0
    outer loop
      vertex 41.1621 7.68164 -2.5
      vertex 41.1621 7.68164 2.5
      vertex 41.0752 8.05176 2.5
    endloop
  endfacet
  facet normal -0.987137 -0.159878 0
    outer loop
      vertex 41.2793 6.95801 -2.5
      vertex 41.1621 7.68164 2.5
      vertex 41.1621 7.68164 -2.5
    endloop
  endfacet
  facet normal -0.987137 -0.159878 0
    outer loop
      vertex 41.2793 6.95801 -2.5
      vertex 41.2793 6.95801 2.5
      vertex 41.1621 7.68164 2.5
    endloop
  endfacet
  facet normal -0.992684 -0.120744 0
    outer loop
      vertex 41.3008 6.78125 -2.5
      vertex 41.2793 6.95801 2.5
      vertex 41.2793 6.95801 -2.5
    endloop
  endfacet
  facet normal -0.992684 -0.120744 0
    outer loop
      vertex 41.3008 6.78125 -2.5
      vertex 41.3008 6.78125 2.5
      vertex 41.2793 6.95801 2.5
    endloop
  endfacet
  facet normal -0.989993 -0.141118 0
    outer loop
      vertex 41.3672 6.31543 -2.5
      vertex 41.3008 6.78125 2.5
      vertex 41.3008 6.78125 -2.5
    endloop
  endfacet
  facet normal -0.989993 -0.141118 0
    outer loop
      vertex 41.3672 6.31543 -2.5
      vertex 41.3672 6.31543 2.5
      vertex 41.3008 6.78125 2.5
    endloop
  endfacet
  facet normal -0.950837 -0.309692 0
    outer loop
      vertex 41.8125 4.94824 -2.5
      vertex 41.3672 6.31543 2.5
      vertex 41.3672 6.31543 -2.5
    endloop
  endfacet
  facet normal -0.950837 -0.309692 0
    outer loop
      vertex 41.8125 4.94824 -2.5
      vertex 41.8125 4.94824 2.5
      vertex 41.3672 6.31543 2.5
    endloop
  endfacet
  facet normal -0.859594 -0.510978 0
    outer loop
      vertex 42.7715 3.33496 -2.5
      vertex 41.8125 4.94824 2.5
      vertex 41.8125 4.94824 -2.5
    endloop
  endfacet
  facet normal -0.859594 -0.510978 0
    outer loop
      vertex 42.7715 3.33496 -2.5
      vertex 42.7715 3.33496 2.5
      vertex 41.8125 4.94824 2.5
    endloop
  endfacet
  facet normal -0.700964 -0.713197 0
    outer loop
      vertex 44.1387 1.99121 -2.5
      vertex 42.7715 3.33496 2.5
      vertex 42.7715 3.33496 -2.5
    endloop
  endfacet
  facet normal -0.700964 -0.713197 0
    outer loop
      vertex 44.1387 1.99121 -2.5
      vertex 44.1387 1.99121 2.5
      vertex 42.7715 3.33496 2.5
    endloop
  endfacet
  facet normal -0.540836 -0.841128 0
    outer loop
      vertex 45.416 1.16992 -2.5
      vertex 44.1387 1.99121 2.5
      vertex 44.1387 1.99121 -2.5
    endloop
  endfacet
  facet normal -0.540836 -0.841128 0
    outer loop
      vertex 45.416 1.16992 -2.5
      vertex 45.416 1.16992 2.5
      vertex 44.1387 1.99121 2.5
    endloop
  endfacet
  facet normal -0.407788 -0.913077 0
    outer loop
      vertex 45.873 0.96582 -2.5
      vertex 45.416 1.16992 2.5
      vertex 45.416 1.16992 -2.5
    endloop
  endfacet
  facet normal -0.407788 -0.913077 0
    outer loop
      vertex 45.873 0.96582 -2.5
      vertex 45.873 0.96582 2.5
      vertex 45.416 1.16992 2.5
    endloop
  endfacet
  facet normal -0.419949 -0.907548 0
    outer loop
      vertex 46.3584 0.741211 -2.5
      vertex 45.873 0.96582 2.5
      vertex 45.873 0.96582 -2.5
    endloop
  endfacet
  facet normal -0.419949 -0.907548 0
    outer loop
      vertex 46.3584 0.741211 -2.5
      vertex 46.3584 0.741211 2.5
      vertex 45.873 0.96582 2.5
    endloop
  endfacet
  facet normal -0.193158 -0.981168 0
    outer loop
      vertex 47.9805 0.421875 -2.5
      vertex 46.3584 0.741211 2.5
      vertex 46.3584 0.741211 -2.5
    endloop
  endfacet
  facet normal -0.193158 -0.981168 0
    outer loop
      vertex 47.9805 0.421875 -2.5
      vertex 47.9805 0.421875 2.5
      vertex 46.3584 0.741211 2.5
    endloop
  endfacet
  facet normal -0.0907759 -0.995871 0
    outer loop
      vertex 50.9053 0.155273 -2.5
      vertex 47.9805 0.421875 2.5
      vertex 47.9805 0.421875 -2.5
    endloop
  endfacet
  facet normal -0.0907759 -0.995871 0
    outer loop
      vertex 50.9053 0.155273 -2.5
      vertex 50.9053 0.155273 2.5
      vertex 47.9805 0.421875 2.5
    endloop
  endfacet
  facet normal 0.0139147 -0.999903 0
    outer loop
      vertex 53.9229 0.197266 -2.5
      vertex 50.9053 0.155273 2.5
      vertex 50.9053 0.155273 -2.5
    endloop
  endfacet
  facet normal 0.0139147 -0.999903 0
    outer loop
      vertex 53.9229 0.197266 -2.5
      vertex 53.9229 0.197266 2.5
      vertex 50.9053 0.155273 2.5
    endloop
  endfacet
endsolid OpenSCAD_Model
